<?xml version="1.0" encoding="UTF-8"?>
<svg width="15px" height="16px" viewBox="0 0 15 16" version="1.1" xmlns="http://www.w3.org/2000/svg" xmlns:xlink="http://www.w3.org/1999/xlink">
    <!-- Generator: Sketch 46.2 (44496) - http://www.bohemiancoding.com/sketch -->
    <title>edge</title>
    <desc>Created with Sketch.</desc>
    <defs></defs>
    <g id="Icons" stroke="none" stroke-width="1" fill="none" fill-rule="evenodd">
        <g id="Artboard" transform="translate(-33.000000, -292.000000)" fill-rule="nonzero" fill="#0078D7">
            <g id="edge" transform="translate(33.000000, 292.000000)">
                <path d="M14.8125,7.52 C14.8125,3.09333333 11.7053571,0.0533333333 7.58035714,0 C3.42857143,0.0533333333 0.535714286,3.01333333 0,7.14666667 C1.5,4.69333333 4.47321429,3.04 7.09821429,3.04 C9.24107143,3.04 10.3928571,4.18666667 10.3928571,6.45333333 L4.66071429,6.45333333 C4.76785714,5.49333333 5.19642857,4.50666667 5.78571429,3.92 C3.48214286,4.85333333 1.875,6.93333333 1.875,9.73333333 C1.875,13.2 4.55357143,16 8.46428571,16 C10.4464286,16 12.0535714,15.5733333 13.4464286,14.8533333 L13.4464286,11.4666667 C12.1875,12.2133333 10.6875,12.6666667 9.02678571,12.6666667 C6.53571429,12.6666667 4.74107143,11.4666667 4.74107143,9.28 L14.8125,9.28 L14.8125,7.52 Z" id="Shape"></path>
            </g>
        </g>
    </g>
</svg>