<?xml version="1.0" encoding="UTF-8"?>
<svg width="16px" height="16px" viewBox="0 0 16 16" version="1.1" xmlns="http://www.w3.org/2000/svg" xmlns:xlink="http://www.w3.org/1999/xlink">
    <!-- Generator: Sketch 46.2 (44496) - http://www.bohemiancoding.com/sketch -->
    <title>firefox</title>
    <desc>Created with Sketch.</desc>
    <defs>
        <radialGradient cx="102.389742%" cy="41.3001844%" fx="102.389742%" fy="41.3001844%" r="241.259128%" gradientTransform="translate(1.023897,0.413002),scale(1.000000,0.374299),translate(-1.023897,-0.413002)" id="radialGradient-1">
            <stop stop-color="#FFEA00" offset="10%"></stop>
            <stop stop-color="#FFDE00" offset="17%"></stop>
            <stop stop-color="#FFBF00" offset="28%"></stop>
            <stop stop-color="#FF8E00" offset="43%"></stop>
            <stop stop-color="#FF272D" offset="77%"></stop>
            <stop stop-color="#E0255A" offset="87%"></stop>
            <stop stop-color="#CC2477" offset="95%"></stop>
            <stop stop-color="#C42482" offset="100%"></stop>
        </radialGradient>
        <linearGradient x1="57.3398631%" y1="75.2206878%" x2="35.1458813%" y2="6.80417777%" id="linearGradient-2">
            <stop stop-color="#000F43" stop-opacity="0.4" offset="0%"></stop>
            <stop stop-color="#001962" stop-opacity="0.17" offset="48%"></stop>
            <stop stop-color="#002079" stop-opacity="0" offset="100%"></stop>
        </linearGradient>
        <radialGradient cx="134.21712%" cy="-12.0217113%" fx="134.21712%" fy="-12.0217113%" r="129.487736%" gradientTransform="translate(1.342171,-0.120217),scale(0.895197,1.000000),translate(-1.342171,0.120217)" id="radialGradient-3">
            <stop stop-color="#FFEA00" offset="0%"></stop>
            <stop stop-color="#FF272D" offset="50%"></stop>
            <stop stop-color="#C42482" offset="100%"></stop>
        </radialGradient>
        <radialGradient cx="112.208286%" cy="-43.9489472%" fx="112.208286%" fy="-43.9489472%" r="370.576843%" gradientTransform="translate(1.122083,-0.439489),scale(1.000000,0.558333),translate(-1.122083,0.439489)" id="radialGradient-4">
            <stop stop-color="#FFE900" offset="0%"></stop>
            <stop stop-color="#FFAF0E" offset="16%"></stop>
            <stop stop-color="#FF7A1B" offset="32%"></stop>
            <stop stop-color="#FF4E26" offset="47%"></stop>
            <stop stop-color="#FF2C2E" offset="62%"></stop>
            <stop stop-color="#FF1434" offset="76%"></stop>
            <stop stop-color="#FF0538" offset="89%"></stop>
            <stop stop-color="#FF0039" offset="100%"></stop>
        </radialGradient>
        <radialGradient cx="200.890211%" cy="16.0091876%" fx="200.890211%" fy="16.0091876%" r="164.379879%" gradientTransform="translate(2.008902,0.160092),scale(0.517171,1.000000),translate(-2.008902,-0.160092)" id="radialGradient-5">
            <stop stop-color="#FF272D" offset="0%"></stop>
            <stop stop-color="#C42482" offset="50%"></stop>
            <stop stop-color="#620700" offset="99%"></stop>
        </radialGradient>
        <radialGradient cx="76.8450054%" cy="39.1793718%" fx="76.8450054%" fy="39.1793718%" r="84.0428786%" gradientTransform="translate(0.768450,0.391794),scale(1.000000,0.989648),translate(-0.768450,-0.391794)" id="radialGradient-6">
            <stop stop-color="#FFEA00" offset="16%"></stop>
            <stop stop-color="#FFDE00" offset="23%"></stop>
            <stop stop-color="#FFBF00" offset="37%"></stop>
            <stop stop-color="#FF8E00" offset="54%"></stop>
            <stop stop-color="#FF272D" offset="76%"></stop>
            <stop stop-color="#F92433" offset="80%"></stop>
            <stop stop-color="#E91C45" offset="84%"></stop>
            <stop stop-color="#CF0E62" offset="89%"></stop>
            <stop stop-color="#B5007F" offset="94%"></stop>
        </radialGradient>
        <radialGradient cx="28.7395538%" cy="3.35553196%" fx="28.7395538%" fy="3.35553196%" r="241.105864%" gradientTransform="translate(0.287396,0.033555),scale(1.000000,0.408970),translate(-0.287396,-0.033555)" id="radialGradient-7">
            <stop stop-color="#FFEA00" offset="28%"></stop>
            <stop stop-color="#FFDD00" offset="40%"></stop>
            <stop stop-color="#FFBA00" offset="63%"></stop>
            <stop stop-color="#FF9100" offset="86%"></stop>
            <stop stop-color="#FF6711" offset="93%"></stop>
            <stop stop-color="#FF4A1D" offset="99%"></stop>
        </radialGradient>
        <linearGradient x1="-143.122081%" y1="77.6317435%" x2="141.906755%" y2="39.428981%" id="linearGradient-8">
            <stop stop-color="#C42482" stop-opacity="0.5" offset="0%"></stop>
            <stop stop-color="#FF272D" stop-opacity="0.5" offset="47%"></stop>
            <stop stop-color="#FF2C2C" stop-opacity="0.51" offset="49%"></stop>
            <stop stop-color="#FF7A1A" stop-opacity="0.72" offset="68%"></stop>
            <stop stop-color="#FFB20D" stop-opacity="0.87" offset="83%"></stop>
            <stop stop-color="#FFD605" stop-opacity="0.96" offset="94%"></stop>
            <stop stop-color="#FFE302" offset="100%"></stop>
        </linearGradient>
        <linearGradient x1="55.5432879%" y1="98.2681376%" x2="18.7831944%" y2="9.22918671%" id="linearGradient-9">
            <stop stop-color="#891551" stop-opacity="0.6" offset="0%"></stop>
            <stop stop-color="#C42482" stop-opacity="0" offset="100%"></stop>
        </linearGradient>
        <linearGradient x1="8.07048282%" y1="5.40918885%" x2="47.7186259%" y2="46.4157159%" id="linearGradient-10">
            <stop stop-color="#891551" stop-opacity="0.5" offset="1%"></stop>
            <stop stop-color="#FF272D" stop-opacity="0.5" offset="48%"></stop>
            <stop stop-color="#FF272D" stop-opacity="0" offset="100%"></stop>
        </linearGradient>
        <linearGradient x1="47.2174258%" y1="98.3754935%" x2="49.7187345%" y2="27.7861435%" id="linearGradient-11">
            <stop stop-color="#C42482" offset="0%"></stop>
            <stop stop-color="#C42482" stop-opacity="0.81" offset="8%"></stop>
            <stop stop-color="#C42482" stop-opacity="0.57" offset="21%"></stop>
            <stop stop-color="#C42482" stop-opacity="0.36" offset="33%"></stop>
            <stop stop-color="#C42482" stop-opacity="0.2" offset="45%"></stop>
            <stop stop-color="#C42482" stop-opacity="0.09" offset="56%"></stop>
            <stop stop-color="#C42482" stop-opacity="0.02" offset="67%"></stop>
            <stop stop-color="#C42482" stop-opacity="0" offset="77%"></stop>
        </linearGradient>
        <linearGradient x1="6.33538553%" y1="1.64707394%" x2="92.3524888%" y2="89.4597546%" id="linearGradient-12">
            <stop stop-color="#FFF14F" offset="0%"></stop>
            <stop stop-color="#FFEE4C" offset="27%"></stop>
            <stop stop-color="#FFE643" offset="45%"></stop>
            <stop stop-color="#FFD834" offset="61%"></stop>
            <stop stop-color="#FFC41E" offset="76%"></stop>
            <stop stop-color="#FFAB02" offset="89%"></stop>
            <stop stop-color="#FFA900" offset="90%"></stop>
            <stop stop-color="#FFA000" offset="95%"></stop>
            <stop stop-color="#FF9100" offset="100%"></stop>
        </linearGradient>
        <linearGradient x1="71.7876242%" y1="7.15862023%" x2="42.7460118%" y2="81.9480213%" id="linearGradient-13">
            <stop stop-color="#FF8E00" offset="0%"></stop>
            <stop stop-color="#FF8E00" stop-opacity="0.86" offset="4%"></stop>
            <stop stop-color="#FF8E00" stop-opacity="0.73" offset="8%"></stop>
            <stop stop-color="#FF8E00" stop-opacity="0.63" offset="13%"></stop>
            <stop stop-color="#FF8E00" stop-opacity="0.56" offset="18%"></stop>
            <stop stop-color="#FF8E00" stop-opacity="0.51" offset="23%"></stop>
            <stop stop-color="#FF8E00" stop-opacity="0.5" offset="28%"></stop>
            <stop stop-color="#FF8E00" stop-opacity="0.48" offset="39%"></stop>
            <stop stop-color="#FF8E00" stop-opacity="0.42" offset="52%"></stop>
            <stop stop-color="#FF8E00" stop-opacity="0.31" offset="68%"></stop>
            <stop stop-color="#FF8E00" stop-opacity="0.17" offset="84%"></stop>
            <stop stop-color="#FF8E00" stop-opacity="0" offset="100%"></stop>
        </linearGradient>
    </defs>
    <g id="Icons" stroke="none" stroke-width="1" fill="none" fill-rule="evenodd">
        <g id="Artboard" transform="translate(-32.000000, -232.000000)" fill-rule="nonzero">
            <g id="firefox" transform="translate(32.000000, 232.000000)">
                <path d="M12.9187421,1.48878049 C12.517065,1.94211382 12.3300629,2.96260163 12.7372746,3.99707317 C13.1444864,5.03154472 13.7687212,4.80682927 14.1578197,5.86162602 C14.6713627,7.25349593 14.432369,9.12325203 14.432369,9.12325203 C14.432369,9.12325203 15.0497275,10.856748 15.4800839,9.01544715 C16.4325367,5.55674797 12.9187421,2.3404878 12.9187421,1.48878049 Z" id="Shape" fill="url(#radialGradient-1)"></path>
                <path d="M8.01794549,15.8478049 C12.1309853,15.8478049 15.4628092,12.6 15.4628092,8.59577236 C15.4628092,4.59154472 12.1309853,1.34373984 8.02197065,1.34373984 C3.91295597,1.34373984 0.581132075,4.59056911 0.581132075,8.59528455 C0.573249476,12.6039024 3.90893082,15.8478049 8.01794549,15.8478049 Z" id="Shape" fill="#000000"></path>
                <path d="M13.5961426,13.0673171 C13.4352217,13.1773746 13.2664074,13.276162 13.0909853,13.3629268 C13.3234097,13.0325754 13.5378196,12.6906432 13.7333333,12.3385366 C13.8919916,12.1682927 14.0374004,12.0027642 14.1558071,11.8239024 C14.213501,11.735935 14.2784067,11.6274797 14.3473375,11.501626 C14.765283,10.7715447 15.2261635,9.5900813 15.2392453,8.37642276 L15.2392453,8.37398374 C15.2392453,8.34406504 15.2392453,8.31430894 15.2392453,8.28439024 C15.2414218,7.9797449 15.2093101,7.67577855 15.1434801,7.37788618 C15.1468344,7.40113821 15.1498532,7.42439024 15.1528721,7.44764228 C15.1491824,7.4297561 15.1459958,7.41170732 15.1421384,7.39382114 C15.1483438,7.42634146 15.1532075,7.45886179 15.1589099,7.49138211 C15.2442767,8.19414634 15.1835639,8.8795122 14.8791614,9.38487805 C14.8742977,9.39219512 14.869434,9.39918699 14.8645702,9.40634146 C15.0223899,8.63837398 15.0752201,7.7902439 14.8996226,6.94130081 C14.8996226,6.94130081 14.8293501,6.52861789 14.3062474,5.27560976 C14.0043606,4.55447154 13.4705241,3.96308943 12.9980713,3.53235772 C12.5839832,3.03560976 12.2079665,2.70308943 12.0006709,2.49073171 C11.567631,2.04861789 11.3861635,1.71723577 11.3115304,1.50097561 C11.2469602,1.4695935 10.4202935,0.691056911 10.354717,0.661463415 C9.99396226,1.20373984 8.85937107,2.9 9.39874214,4.48504065 C9.64327044,5.20325203 10.2619706,5.94845528 10.9093501,6.36699187 C10.9376939,6.39853659 11.2950943,6.77349593 11.4643187,7.62162602 C11.6395807,8.49723577 11.5481761,9.1803252 11.1869182,10.1907317 C10.7627673,11.0770732 9.67631027,11.9531707 8.6591195,12.0427642 C6.48436059,12.2343089 5.68805031,10.984065 5.68805031,10.984065 C6.46524109,11.2852033 7.32444444,11.2222764 7.84687631,10.9099187 C8.37350105,10.5939837 8.69199161,10.3598374 8.95060797,10.4521951 C9.20519916,10.5435772 9.40880503,10.2764228 9.22599581,10 C8.93850006,9.57072881 8.41432184,9.34946462 7.89433962,9.43788618 C7.36721174,9.52097561 6.88419287,9.92569106 6.19354298,9.53365854 C6.14883107,9.50851758 6.10555342,9.48105205 6.06389937,9.45138211 C6.01844864,9.42227642 6.21199161,9.49560976 6.1667086,9.46260163 C6.03253669,9.39186992 5.79438155,9.23756098 5.73266247,9.18260163 C5.72243187,9.17349593 5.83698113,9.21804878 5.82675052,9.20894309 C5.1808805,8.69333333 5.26155136,8.34504065 5.28184486,8.12650407 C5.29861635,7.95170732 5.41601677,7.72780488 5.61308176,7.63691057 C5.70851153,7.68747967 5.76805031,7.72601626 5.76805031,7.72601626 C5.76805031,7.72601626 5.7272956,7.64471545 5.70532495,7.60276423 C5.71303983,7.5995122 5.72041929,7.6003252 5.72813417,7.59723577 C5.80628931,7.63382114 5.9797065,7.72894309 6.07044025,7.78699187 C6.18901468,7.86829268 6.22691824,7.9404878 6.22691824,7.9404878 C6.22691824,7.9404878 6.25811321,7.92422764 6.23496855,7.85317073 C6.22658281,7.82422764 6.19052411,7.73203252 6.07312369,7.63902439 L6.08050314,7.63902439 C6.15083737,7.67786115 6.21746027,7.72269988 6.27958071,7.77300813 C6.31312369,7.65626016 6.37232704,7.53430894 6.35924528,7.31626016 C6.35119497,7.16292683 6.3548847,7.12325203 6.32704403,7.06406504 C6.30205451,7.01317073 6.34096436,6.99333333 6.38440252,7.04617886 C6.37697342,7.00479635 6.36453236,6.96440857 6.34733753,6.92585366 L6.34733753,6.92195122 C6.40150943,6.73918699 7.49199161,6.26406504 7.57165618,6.20845528 C7.7020656,6.11898057 7.8114179,6.00370705 7.89249476,5.8702439 C7.95320755,5.77658537 7.998826,5.64504065 8.00989518,5.44569106 C8.01593291,5.30195122 7.94683438,5.20617886 6.84410901,5.09414634 C6.54222222,5.06536585 6.36561845,4.85349593 6.26498952,4.65804878 C6.2467086,4.61593496 6.22792453,4.57772358 6.20914046,4.5396748 C6.19126498,4.49510517 6.17691191,4.44928195 6.16620545,4.40260163 C6.34649895,3.90065041 6.64939203,3.47577236 7.09484277,3.15544715 C7.11916143,3.13398374 6.99790356,3.16097561 7.02205451,3.13918699 C7.05039832,3.11414634 7.23522013,3.04162602 7.27010482,3.02536585 C7.3127044,3.00585366 7.08763103,2.91317073 6.88888889,2.93577236 C6.68645702,2.95788618 6.64352201,2.98130081 6.53551363,3.02569106 C6.5802935,2.98243902 6.72285115,2.92569106 6.68947589,2.92601626 C6.47144654,2.95853659 6.20008386,3.08146341 5.96830189,3.22065041 C5.96781854,3.19639123 5.97255961,3.172301 5.98222222,3.1499187 C5.87421384,3.19430894 5.60888889,3.37414634 5.53157233,3.52617886 C5.53492306,3.49702716 5.53643531,3.46770434 5.53610063,3.43837398 C5.45383529,3.50492881 5.37962225,3.58031587 5.3148847,3.66308943 L5.31085954,3.66666667 C4.68427673,3.42276423 4.1329979,3.40650407 3.66641509,3.51577236 C3.56427673,3.41642276 3.51446541,3.48910569 3.28218029,2.99430894 C3.26641509,2.96455285 3.29425577,3.02373984 3.28218029,2.99430894 C3.2439413,2.89837398 3.30549266,3.12227642 3.28218029,2.99430894 C2.89174004,3.29300813 2.37786164,3.63154472 2.13115304,3.87056911 C2.12813417,3.8801626 2.41895178,3.79089431 2.13115304,3.87056911 C2.03052411,3.89853659 2.0372327,3.95642276 2.02197065,4.4803252 C2.01828092,4.52 2.02197065,4.56455285 2.01828092,4.6003252 C1.82121593,4.84422764 1.68704403,5.0497561 1.63622642,5.15658537 C1.38146751,5.58227642 1.10071279,6.24601626 0.828679245,7.29560976 C0.948770184,7.01152122 1.09346635,6.7378056 1.26121593,6.47739837 C1.03496855,7.03463415 0.816268344,7.9095935 0.772662474,9.25691057 C0.827368299,8.97886381 0.897519327,8.7038836 0.982809224,8.43317073 C0.929308644,9.55108728 1.12809133,10.6668563 1.56528302,11.7026016 C1.72176101,12.0736585 1.98054507,12.6369106 2.42062893,13.2538211 C3.80545073,14.6666667 5.75781971,15.5447154 7.91966457,15.5447154 C10.1767715,15.5447154 12.2036059,14.5874797 13.5961426,13.0673171 Z" id="Shape" fill="url(#linearGradient-2)"></path>
                <path d="M11.9262055,14.0928455 C14.6577778,13.7861789 15.8675052,11.0570732 14.31413,11.0034146 C12.9115304,10.9593496 10.6331237,14.237561 11.9262055,14.0928455 Z" id="Shape" fill="url(#radialGradient-3)"></path>
                <path d="M14.5108595,10.4458537 C16.3901048,9.38552846 15.8993711,7.09495935 15.8993711,7.09495935 C15.8993711,7.09495935 15.1740042,7.91186992 14.6814256,9.21398374 C14.1953878,10.504065 13.3809644,11.0863415 14.5108595,10.4458537 Z" id="Shape" fill="url(#radialGradient-4)"></path>
                <path d="M8.54457023,15.4481301 C11.1647799,16.2586992 13.4171908,14.257561 12.0286792,13.5892683 C10.7672956,12.9866667 7.30096436,15.064878 8.54457023,15.4481301 Z" id="Shape" fill="url(#radialGradient-5)"></path>
                <path d="M14.7060797,11.418374 C14.7698113,11.3312195 14.8560168,11.0520325 14.9321593,10.9271545 C15.394717,10.203252 15.3980713,9.62634146 15.3980713,9.61268293 C15.6774843,8.2595122 15.6521593,7.70699187 15.4802516,6.68585366 C15.3418868,5.86308943 14.7369392,4.68439024 14.2128302,4.11674797 C13.6727883,3.53138211 14.0533333,3.72243902 13.5303983,3.29528455 C13.0720335,2.80276423 12.6277568,2.31495935 12.3857442,2.11869919 C10.6368134,0.700650407 10.6762264,0.399674797 10.7099371,0.348292683 C10.7042348,0.354308943 10.6958491,0.363252033 10.685283,0.37495935 C10.6644864,0.29495935 10.6498952,0.227642276 10.6498952,0.227642276 C10.6498952,0.227642276 9.69392034,1.15447154 9.49266247,2.69918699 C9.36134172,3.70731707 9.75060797,4.75902439 10.3144654,5.43089431 C10.6080534,5.77911685 10.9398445,6.09534032 11.3039832,6.37398374 L11.3039832,6.37398374 C11.729979,6.96715447 11.9644444,7.69902439 11.9644444,8.48634146 C11.9644444,10.4577236 10.3151363,12.055935 8.280587,12.055935 C8.00332347,12.0560648 7.72692471,12.0259568 7.45660377,11.9661789 C6.49660377,11.7886179 5.94213836,11.3190244 5.66574423,11.0001626 C5.50725367,10.817561 5.44,10.6843902 5.44,10.6843902 C6.30004193,10.9830894 7.25132075,10.9206504 7.82943396,10.6108943 C8.41224319,10.2977236 8.76477987,10.0653659 9.05106918,10.1569106 C9.33316562,10.2481301 9.55773585,9.98341463 9.35631027,9.70910569 C9.15890985,9.43512195 8.64519916,9.04243902 7.88243187,9.15154472 C7.29895178,9.23398374 6.76444444,9.63544715 6,9.24650407 C5.95079461,9.22180622 5.90293259,9.19467008 5.85660377,9.16520325 C5.80628931,9.13642276 6.02046122,9.20894309 5.97048218,9.17626016 C5.82171908,9.10601626 5.55840671,8.95300813 5.49014675,8.89869919 C5.47874214,8.8895935 5.60553459,8.93382114 5.59412998,8.92471545 C4.87932914,8.41333333 4.96855346,8.06796748 4.99035639,7.85154472 C5.00830189,7.67821138 5.13811321,7.45609756 5.35698113,7.36601626 C5.46264151,7.41609756 5.52855346,7.45430894 5.52855346,7.45430894 C5.52855346,7.45430894 5.48343816,7.37430894 5.4591195,7.33219512 C5.46767296,7.32910569 5.47589099,7.3297561 5.48427673,7.32666667 C5.57081761,7.36292683 5.76234801,7.45674797 5.86314465,7.51479675 C5.99446541,7.59528455 6.03622642,7.66699187 6.03622642,7.66699187 C6.03622642,7.66699187 6.07077568,7.65073171 6.04528302,7.5803252 C6.03589099,7.55154472 5.99614256,7.4601626 5.86616352,7.36780488 L5.87421384,7.36780488 C5.95137801,7.40593841 6.02504805,7.45038122 6.09442348,7.50065041 C6.13115304,7.38487805 6.19706499,7.26390244 6.18247379,7.04764228 C6.17358491,6.89560976 6.17777778,6.85609756 6.14691824,6.79739837 C6.11924528,6.74699187 6.16234801,6.72731707 6.21031447,6.7796748 C6.20204292,6.73834624 6.18828781,6.69822968 6.16939203,6.6603252 L6.16939203,6.65642276 C6.22926625,6.47528455 7.43614256,6.00406504 7.52402516,5.94894309 C7.66555651,5.86278303 7.78658155,5.74844074 7.87907757,5.61349593 C7.94616352,5.5204878 7.99647799,5.3902439 8.0090566,5.19252033 C8.01324948,5.10341463 7.98490566,5.03284553 7.66524109,4.96487805 C7.47337526,4.92439024 7.17651992,4.88504065 6.718826,4.84341463 C6.38507338,4.81479675 6.18918239,4.60471545 6.07798742,4.41089431 C6.05769392,4.36910569 6.03689727,4.33121951 6.01626834,4.29349593 C5.99658449,4.2495395 5.98070858,4.20407088 5.96880503,4.15756098 C6.16853443,3.65068186 6.52821032,3.21786699 6.99656184,2.92081301 C7.02339623,2.8995122 6.88922432,2.92617886 6.9160587,2.90455285 C6.94742138,2.8798374 7.15186583,2.80813008 7.19060797,2.79203252 C7.23773585,2.77268293 6.9893501,2.68081301 6.76863732,2.70308943 C6.54457023,2.72504065 6.49710692,2.74829268 6.37752621,2.79235772 C6.42784067,2.74943089 6.58498952,2.69317073 6.54792453,2.69349593 C6.30641509,2.72601626 6.00620545,2.84764228 5.74960168,2.98617886 C5.74911858,2.96197895 5.75439867,2.93799705 5.76503145,2.91609756 C5.64545073,2.9601626 5.35178197,3.13837398 5.26641509,3.2900813 C5.27006579,3.2612242 5.27169077,3.23216003 5.27127883,3.20308943 C5.18124574,3.26814457 5.0991011,3.34287547 5.02641509,3.42585366 L5.02188679,3.42943089 C4.32939203,3.18699187 3.71907757,3.17073171 3.2033543,3.28 C3.09031447,3.18146341 2.90867925,3.03235772 2.65174004,2.54178862 C2.63496855,2.51219512 2.62490566,2.60276423 2.61148847,2.57430894 C2.51085954,2.3497561 2.45132075,1.98178862 2.46054507,1.72878049 C2.46054507,1.72878049 2.25392034,1.82 2.08301887,2.20130081 C2.05132075,2.2697561 2.03085954,2.30764228 2.01056604,2.34552846 C2.001174,2.35658537 2.03186583,2.2203252 2.02733753,2.22780488 C1.99765199,2.27658537 1.92067086,2.34471545 1.88696017,2.43300813 C1.86381551,2.49804878 1.83127883,2.53495935 1.81048218,2.61658537 L1.80561845,2.62406504 C1.8039413,2.6 1.8118239,2.52520325 1.80561845,2.5404878 C1.7254621,2.69704044 1.65642658,2.85871738 1.59899371,3.02439024 C1.50691824,3.31707317 1.39974843,3.71723577 1.38280922,4.23691057 C1.37878407,4.27626016 1.38280922,4.3204878 1.37861635,4.35593496 C1.160587,4.59707317 1.01199161,4.80130081 0.955974843,4.90731707 C0.674046122,5.3300813 0.363438155,5.98764228 0.0622222222,7.02861789 C0.196184894,6.74418747 0.356389351,6.47207784 0.540880503,6.21560976 C0.29048218,6.76829268 0.0484696017,7.63609756 0,8.97235772 C0.0607659228,8.69582363 0.138443264,8.42303843 0.232620545,8.15544715 C0.189350105,9.04650407 0.296519916,10.1512195 0.877484277,11.398374 C1.22247379,12.1300813 2.01660377,13.6195122 3.95706499,14.7813008 L3.95706499,14.7813008 C3.95706499,14.7813008 4.61719078,15.2577236 5.75161426,15.6147967 C5.8354717,15.6442276 5.92033543,15.6733333 6.00704403,15.7014634 C5.97987421,15.6907317 5.95354298,15.6796748 5.92805031,15.6681301 C6.68336791,15.8875933 7.46759244,15.9993866 8.25610063,16 C11.19413,16.002439 12.0607128,14.8585366 12.0607128,14.8585366 L12.0521593,14.8647154 C12.0936408,14.8268835 12.133557,14.7875339 12.1719078,14.7466667 C11.7083438,15.1707317 10.6498952,15.1993496 10.2549266,15.1686179 C10.9294759,14.9765854 11.3734172,14.8139837 12.2368134,14.4934959 C12.3374423,14.4570732 12.4407547,14.415664 12.5467505,14.3692683 L12.5811321,14.3539837 C12.6020964,14.3445528 12.6228931,14.3356098 12.6440252,14.3256911 C13.064721,14.1334163 13.4602959,13.893242 13.8223899,13.6102439 C14.6894759,12.9386992 14.8781551,12.284065 14.9767715,11.8525203 C14.9630189,11.8938211 14.9202516,11.9902439 14.8900629,12.0528455 C14.6668344,12.515935 14.1715723,12.800813 13.6337107,13.0439024 C13.8895887,12.7183171 14.1268697,12.3793807 14.3444864,12.0286179 C14.5202516,11.86 14.5744235,11.595935 14.7060797,11.418374 Z" id="Shape" fill="url(#radialGradient-6)"></path>
                <path d="M13.6506499,13.0243902 C14.0041929,12.6465041 14.3215094,12.2143089 14.5621803,11.7235772 C15.1810482,10.4621138 16.1387002,8.36455285 15.3839832,6.17382114 C14.7885954,4.44260163 13.9706499,3.49593496 12.9326625,2.57105691 C11.2462893,1.06926829 10.7753459,0.398699187 10.7753459,0 C10.7753459,0 8.82834382,2.10422764 9.67278826,4.29886179 C10.5172327,6.49349593 12.2465409,6.41268293 13.3906918,8.70325203 C14.7369392,11.3982114 12.3013836,14.339187 10.2879665,15.162439 C10.4112369,15.135935 14.7659539,14.1806504 14.9942138,11.7660163 C14.9883438,11.8104065 14.8902306,12.4782114 13.6506499,13.0243902 Z" id="Shape" fill="url(#radialGradient-7)"></path>
                <path d="M8.00989518,5.19300813 C8.01643606,5.0504065 7.94012579,4.95463415 6.72385744,4.84406504 C6.22339623,4.79918699 6.03186583,4.35089431 5.97333333,4.16211382 C5.79538784,4.6102439 5.72176101,5.08065041 5.76134172,5.6495935 C5.78834382,6.02227642 6.04645702,6.42227642 6.17006289,6.65772358 C6.17006289,6.65772358 6.19756813,6.62308943 6.21014675,6.6104065 C6.44259958,6.37577236 7.41668763,6.01821138 7.50809224,5.96747967 C7.6090566,5.90504065 7.99295597,5.63317073 8.00989518,5.19300813 Z" id="Shape" fill="url(#linearGradient-8)"></path>
                <path d="M2.65509434,2.54422764 C2.63832285,2.51463415 2.62825996,2.60520325 2.61484277,2.57674797 C2.51421384,2.35219512 2.45417191,1.98813008 2.46859539,1.73121951 C2.46859539,1.73121951 2.26197065,1.82243902 2.09106918,2.20373984 C2.05937107,2.27219512 2.03890985,2.3100813 2.01861635,2.34780488 C2.00922432,2.35886179 2.03991614,2.22260163 2.03538784,2.2300813 C2.00570231,2.27886179 1.92872117,2.34699187 1.89534591,2.43138211 C1.86767296,2.5003252 1.83916143,2.53739837 1.81802935,2.62276423 C1.81148847,2.64601626 1.82457023,2.52 1.81886792,2.53528455 C1.4208805,3.27934959 1.34490566,4.40650407 1.38683438,4.35772358 C2.23345912,3.48195122 3.2033543,3.27414634 3.2033543,3.27414634 C3.10020964,3.2004878 2.87580713,2.98747967 2.65492662,2.54422764 L2.65509434,2.54422764 Z" id="Shape" fill="url(#linearGradient-9)"></path>
                <path d="M5.86733753,11.7089431 C4.69802935,11.224878 3.36838574,10.5422764 3.41870021,8.99121951 C3.48712788,6.94878049 5.3836478,7.35252033 5.3836478,7.35252033 C5.31203354,7.36878049 5.12067086,7.50146341 5.05291405,7.64227642 C4.98129979,7.81837398 4.85048218,8.21593496 5.24662474,8.63252033 C5.86867925,9.28601626 3.96863732,10.1830894 6.90129979,11.877561 C6.97526205,11.9165854 6.21366876,11.8543089 5.86750524,11.7091057 L5.86733753,11.7089431 Z" id="Shape" fill="url(#linearGradient-10)"></path>
                <path d="M5.45190776,10.6910569 C6.28109015,10.9708943 7.24645702,10.9217886 7.82540881,10.6120325 C8.21266247,10.4030894 8.70926625,10.0684553 9.01484277,10.1510569 C8.75018868,10.0495935 8.54976939,10.0022764 8.3087631,9.99073171 C8.26767296,9.99073171 8.21853249,9.9899187 8.17459119,9.98552846 C8.08628027,9.98523329 7.99802597,9.98990237 7.91027254,9.9995122 C7.76100629,10.0128455 7.5954717,10.104065 7.44503145,10.0894309 C7.43698113,10.0894309 7.5909434,10.0281301 7.57920335,10.0307317 C7.49953878,10.0469919 7.41283019,10.0504065 7.32142558,10.0613008 C7.26322851,10.0676423 7.21324948,10.0746341 7.15555556,10.077561 C5.42809224,10.2195122 3.96897275,9.1700813 3.96897275,9.1700813 C3.84469602,9.57658537 4.52528302,10.3782114 5.45358491,10.6915447 L5.45190776,10.6910569 Z" id="Shape" fill="url(#linearGradient-11)"></path>
                <path d="M13.647631,13.0349593 C15.3945493,11.3720325 16.2784067,9.35073171 15.9047379,7.08373984 C15.9047379,7.08373984 16.0540042,8.24634146 15.4879665,9.43544715 C15.7598323,8.27463415 15.7915304,6.83203252 15.0686792,5.33788618 C14.1048218,3.34373984 12.5190776,2.29447154 11.9136268,1.85674797 C10.9963941,1.19349593 10.6163522,0.518211382 10.6091405,0.378861789 C10.3350943,0.923252033 9.50607966,2.78861789 10.5200839,4.39512195 C11.470021,5.9001626 12.9663732,6.34634146 14.0140881,7.72764228 C15.9441509,10.2710569 13.647631,13.0349593 13.647631,13.0349593 Z" id="Shape" fill="url(#linearGradient-12)"></path>
                <path d="M13.3972327,8.70813008 C12.7867505,7.48536585 12.0251572,6.95203252 11.3039832,6.37398374 C11.3878407,6.48780488 11.4084696,6.52796748 11.4549266,6.60162602 C12.089392,7.25723577 13.0249057,8.85626016 12.3456604,10.8635772 C11.0671698,14.6419512 5.95387841,12.8627642 5.41719078,12.3629268 C5.63404612,14.5497561 9.40880503,15.5960976 11.8675052,14.1780488 C13.2662474,12.8943089 14.3978197,10.7120325 13.3972327,8.70813008 Z" id="Shape" fill="url(#linearGradient-13)"></path>
            </g>
        </g>
    </g>
</svg>