<?xml version="1.0" encoding="UTF-8"?>
<svg width="16px" height="16px" viewBox="0 0 16 16" version="1.1" xmlns="http://www.w3.org/2000/svg" xmlns:xlink="http://www.w3.org/1999/xlink">
    <!-- Generator: Sketch 46.2 (44496) - http://www.bohemiancoding.com/sketch -->
    <title>maxthon</title>
    <desc>Created with Sketch.</desc>
    <defs></defs>
    <g id="Icons" stroke="none" stroke-width="1" fill="none" fill-rule="evenodd">
        <g id="Artboard" transform="translate(-32.000000, -352.000000)" fill-rule="nonzero">
            <g id="maxthon" transform="translate(32.000000, 352.000000)">
                <polygon id="Shape" fill="#477BAF" points="0.00796680498 0.0637344398 15.940249 0.0637344398 15.940249 15.9953527 0.00663900415 15.9953527 0.00663900415 0.0637344398"></polygon>
                <path d="M9.21892116,10.7405809 C8.41516232,10.5627881 7.57911747,10.595489 6.79170124,10.8355187 L6.79170124,8.44547718 L9.21892116,8.44547718 L9.21892116,10.7425726 L9.21892116,10.7405809 Z M10.4624066,11.2019917 L10.4624066,7.2013278 L5.54290456,7.2013278 L5.54290456,11.4237344 L5.52962656,11.433029 L3.11302905,11.433029 L3.11302905,4.71369295 L10.4358506,4.71369295 C10.4358506,4.71369295 12.8856432,4.72497925 12.8856432,7.08049793 L12.8856432,11.4356846 L10.8408299,11.4390041 C10.7146888,11.3560166 10.5885477,11.2783402 10.4557676,11.206639 L10.4624066,11.2019917 Z" id="Shape" fill="#FFFFFF"></path>
                <path d="M0.630705394,15.2896266 L0.630705394,13.0788382 C0.92813278,12.9507054 1.25012448,12.8690456 1.58672199,12.8411618 L1.58672199,12.8458091 C1.64448133,12.8325311 1.70622407,12.8325311 1.77062241,12.8258921 L1.84630705,12.8192531 C1.93261411,12.8192531 2.01228216,12.8225726 2.09195021,12.8285477 C2.30439834,12.8451452 2.52348548,12.8849793 2.73593361,12.9447303 C2.7160166,13.0243983 2.74257261,12.9460581 2.74257261,12.9460581 L2.74124481,12.9440664 L2.74522822,12.926805 C2.67883817,12.8205809 2.51817427,12.6712033 2.32697095,12.5483817 C2.80033195,12.0391701 3.47551867,11.7185062 4.22771784,11.7185062 C4.486639,11.7185062 4.73692946,11.7583402 4.97128631,11.8280498 C4.83850622,12.086971 4.73228216,12.4089627 4.72165975,12.6712033 L4.73095436,12.6804979 L4.73095436,12.6818257 C4.73095436,12.6818257 4.7973444,12.7415768 4.73095436,12.6791701 C4.99917012,12.3219917 5.17311203,12.1367635 5.35966805,11.9774274 L5.36298755,11.9774274 C5.40680498,11.9375934 5.44929461,11.9010788 5.49576763,11.8645643 L5.70821577,11.6985892 C6.41062241,11.1926971 7.26838174,10.8926141 8.19784232,10.8926141 C9.24348548,10.8926141 10.1961826,11.2710373 10.9377593,11.8937759 C10.8494606,12.053112 10.7917012,12.2589212 10.7518672,12.4248963 L10.7684647,12.4448133 L10.7618257,12.4481328 C10.7618257,12.4481328 10.8082988,12.5045643 10.7658091,12.4454772 C10.9185062,12.3286307 11.0897925,12.2429876 11.2371784,12.173278 L11.2371784,12.1746058 C11.4894606,12.0683817 11.766971,12.0099585 12.0577593,12.0099585 C12.8942739,12.0099585 13.6139419,12.4946058 13.9565145,13.1983402 L13.9897095,13.2713693 L13.9963485,13.293278 C14.0560996,13.4260581 14.1025726,13.5853942 14.1357676,13.7858921 C14.0560996,13.7991701 14.1404149,13.7925311 14.1404149,13.7925311 L14.1390871,13.7858921 L14.1576763,13.7825726 C14.2486307,13.646473 14.3236515,13.3955187 14.3435685,13.1651452 C14.6463071,13.0018257 14.9742739,12.8863071 15.3261411,12.8292116 L15.3261411,15.2723651 L0.630705394,15.2723651 L0.630705394,15.2896266 Z" id="Shape" fill="#BFD1E3"></path>
            </g>
        </g>
    </g>
</svg>