<?xml version="1.0" encoding="UTF-8"?>
<svg width="16px" height="16px" viewBox="0 0 16 16" version="1.1" xmlns="http://www.w3.org/2000/svg" xmlns:xlink="http://www.w3.org/1999/xlink">
    <!-- Generator: Sketch 46.2 (44496) - http://www.bohemiancoding.com/sketch -->
    <title>opera</title>
    <desc>Created with Sketch.</desc>
    <defs>
        <linearGradient x1="50%" y1="1.6318408%" x2="50%" y2="98.5438607%" id="linearGradient-1">
            <stop stop-color="#FF1B2D" offset="0%"></stop>
            <stop stop-color="#FF1B2D" offset="30%"></stop>
            <stop stop-color="#FF1B2D" offset="61%"></stop>
            <stop stop-color="#A70014" offset="100%"></stop>
        </linearGradient>
        <linearGradient x1="49.9985028%" y1="0.848429259%" x2="49.9985028%" y2="99.6130475%" id="linearGradient-2">
            <stop stop-color="#9C0000" offset="0%"></stop>
            <stop stop-color="#FF4B4B" offset="70%"></stop>
            <stop stop-color="#FF4B4B" offset="100%"></stop>
        </linearGradient>
    </defs>
    <g id="Icons" stroke="none" stroke-width="1" fill="none" fill-rule="evenodd">
        <g id="Artboard" transform="translate(-32.000000, -262.000000)" fill-rule="nonzero">
            <g id="opera" transform="translate(32.000000, 262.000000)">
                <path d="M8,0.117647059 C3.64705882,0.117647059 0.117647059,3.64705882 0.117647059,8 C0.117647059,12.227451 3.44627451,15.6768627 7.62509804,15.8729412 C7.75058824,15.8792157 7.8745098,15.8823529 8,15.8823529 C10.0188235,15.8823529 11.8588235,15.1231373 13.2533333,13.8760784 C12.3294118,14.4894118 11.2486275,14.8407843 10.0941176,14.8407843 C8.21647059,14.8407843 6.53647059,13.9090196 5.4054902,12.4407843 C4.53333333,11.4117647 3.97019608,9.89176471 3.93098039,8.18509804 L3.93098039,7.81333333 C3.97019608,6.10666667 4.53333333,4.58509804 5.4054902,3.55764706 C6.53647059,2.08941176 8.21803922,1.15764706 10.0941176,1.15764706 C11.2486275,1.15764706 12.3294118,1.51058824 13.2533333,2.12392157 C11.8666667,0.883137255 10.0360784,0.125490196 8.02980392,0.117647059 L8,0.117647059 L8,0.117647059 Z" id="Shape" fill="url(#linearGradient-1)"></path>
                <path d="M5.4054902,3.55764706 C6.12862745,2.70431373 7.06352941,2.18823529 8.08313725,2.18823529 C10.3780392,2.18823529 12.2384314,4.79058824 12.2384314,7.99843137 C12.2384314,11.2078431 10.3780392,13.8086275 8.08313725,13.8086275 C7.06196078,13.8086275 6.12862745,13.2941176 5.4054902,12.4407843 C6.53647059,13.9090196 8.21647059,14.8407843 10.0941176,14.8407843 C11.2486275,14.8407843 12.3294118,14.4878431 13.2533333,13.8760784 C14.867451,12.4329412 15.8823529,10.3356863 15.8823529,8 C15.8823529,5.66588235 14.867451,3.56705882 13.2533333,2.12392157 C12.3294118,1.51058824 11.2486275,1.15921569 10.0941176,1.15921569 C8.21647059,1.15921569 6.53647059,2.09098039 5.4054902,3.55921569" id="Shape" fill="url(#linearGradient-2)"></path>
            </g>
        </g>
    </g>
</svg>