<?xml version="1.0" encoding="UTF-8"?>
<svg width="16px" height="16px" viewBox="0 0 16 16" version="1.1" xmlns="http://www.w3.org/2000/svg" xmlns:xlink="http://www.w3.org/1999/xlink">
    <!-- Generator: Sketch 46.2 (44496) - http://www.bohemiancoding.com/sketch -->
    <title>safari</title>
    <desc>Created with Sketch.</desc>
    <defs>
        <linearGradient x1="0%" y1="0%" x2="0%" y2="100%" id="linearGradient-1">
            <stop stop-color="#19D7FF" offset="0%"></stop>
            <stop stop-color="#1E64F0" offset="100%"></stop>
        </linearGradient>
    </defs>
    <g id="Icons" stroke="none" stroke-width="1" fill="none" fill-rule="evenodd">
        <g id="Artboard" transform="translate(-32.000000, -382.000000)" fill-rule="nonzero">
            <g id="safari" transform="translate(32.000000, 382.000000)">
                <rect id="Rectangle-path" fill="#FFFFFF" x="0" y="0" width="16" height="16" rx="3.2748538"></rect>
                <ellipse id="Oval" fill="url(#linearGradient-1)" cx="7.98440546" cy="8" rx="6.98635478" ry="7"></ellipse>
                <polygon id="Shape" fill="#FF0000" points="12.7563353 3.1875 7.39181287 7.40625 8.63937622 8.65625"></polygon>
                <polygon id="Shape" fill="#FFFFFF" points="3.18128655 12.78125 7.39181287 7.40625 8.63937622 8.65625"></polygon>
                <path d="M7.98440546,1.6875 L7.98440546,2.71875 M7.98440546,13.25 L7.98440546,14.28125 M9.07602339,1.784375 L8.89824561,2.8 M7.0705653,13.16875 L6.89278752,14.184375 M10.1333333,2.06875 L9.78089669,3.0375 M6.18791423,12.93125 L5.83547758,13.9 M6.89278752,1.784375 L7.0705653,2.8 M8.89824561,13.16875 L9.07602339,14.184375 M5.83547758,2.06875 L6.18791423,3.0375 M9.78089669,12.93125 L10.1333333,13.9 M4.84054581,2.53125 L5.3582846,3.425 M10.6136452,12.54375 L11.1282651,13.4375 M3.9454191,3.159375 L4.60662768,3.95 M11.3621832,12.01875 L12.0233918,12.809375 M3.16881092,3.9375 L3.95789474,4.6 M12.0109162,11.36875 L12.8,12.03125 M2.54191033,4.8375 L3.43391813,5.353125 M12.5348928,10.61875 L13.4269006,11.134375 M2.08031189,5.83125 L3.04717349,6.184375 M12.9216374,9.784375 L13.888499,10.1375 M1.79649123,6.890625 L2.81013645,7.06875 M13.1586745,8.9 L14.1723197,9.078125 M1.69980507,7.984375 L2.72904483,7.984375 M13.2397661,7.984375 L14.2690058,7.984375 M1.79649123,9.078125 L2.81013645,8.9 M13.1586745,7.06875 L14.1723197,6.890625 M2.08031189,10.1375 L3.04717349,9.784375 M12.9216374,6.184375 L13.888499,5.83125 M2.54191033,11.134375 L3.43391813,10.61875 M12.5348928,5.353125 L13.4269006,4.8375 M3.16881092,12.03125 L3.95789474,11.36875 M12.0109162,4.6 L12.8,3.9375 M3.9454191,12.809375 L4.60662768,12.01875 M11.3621832,3.95 L12.0233918,3.159375 M4.84054581,13.4375 L5.3582846,12.54375 M10.6136452,3.425 L11.1282651,2.53125 M7.43547758,1.7125 L7.53547758,2.271875 M8.4834308,13.696875 L8.5834308,14.25625 M6.35633528,1.903125 L6.50292398,2.446875 M9.46588694,13.521875 L9.61247563,14.065625 M5.32709552,2.278125 L5.56413255,2.7875 M10.4015595,13.18125 L10.6417154,13.690625 M4.37894737,2.825 L4.70019493,3.2875 M11.268616,12.68125 L11.5898635,13.14375 M3.53996101,3.53125 L3.93606238,3.928125 M12.0327485,12.040625 L12.4288499,12.4375 M2.83508772,4.371875 L3.29668616,4.69375 M12.6721248,11.275 L13.1337232,11.596875 M2.28927875,5.321875 L2.79766082,5.559375 M13.1711501,10.40625 L13.6795322,10.646875 M1.91500975,6.353125 L2.45769981,6.5 M13.5111111,9.46875 L14.0538012,9.615625 M1.72475634,7.434375 L2.28304094,7.53457031 M13.68577,8.484375 L14.2440546,8.58457031 M1.72475634,8.58457031 L2.28304094,8.484375 M13.68577,7.53457031 L14.2440546,7.434375 M1.91500975,9.615625 L2.45769981,9.46875 M13.5111111,6.5 L14.0538012,6.353125 M2.28927875,10.646875 L2.79766082,10.409375 M13.1711501,5.559375 L13.6795322,5.321875 M2.83508772,11.596875 L3.29668616,11.275 M12.6721248,4.69375 L13.1337232,4.371875 M4.37894737,13.14375 L4.70019493,12.68125 M11.2654971,3.2875 L11.5898635,2.825 M5.32709552,13.690625 L5.56725146,13.18125 M10.4015595,2.7875 L10.6417154,2.278125 M6.35633528,14.065625 L6.50292398,13.521875 M9.46588694,2.446875 L9.61247563,1.903125 M7.43547758,14.25625 L7.53547758,13.696875 M8.4834308,2.271875 L8.5834308,1.7125" id="Shape" stroke="#FFFFFF" stroke-width="0.5" fill="#000000"></path>
            </g>
        </g>
    </g>
</svg>