<?xml version="1.0" encoding="UTF-8"?>
<svg width="16px" height="16px" viewBox="0 0 16 16" version="1.1" xmlns="http://www.w3.org/2000/svg" xmlns:xlink="http://www.w3.org/1999/xlink">
    <!-- Generator: Sketch 46.2 (44496) - http://www.bohemiancoding.com/sketch -->
    <title>samsung-internet</title>
    <desc>Created with Sketch.</desc>
    <defs></defs>
    <g id="Icons" stroke="none" stroke-width="1" fill="none" fill-rule="evenodd">
        <g id="Artboard" transform="translate(-32.000000, -472.000000)" fill-rule="nonzero">
            <g id="samsung-internet" transform="translate(32.000000, 472.000000)">
                <path d="M9.30331126,0 C13.269404,0 15.9650331,2.67684211 15.9650331,6.61684211 L15.9650331,9.29789474 L15.9597351,9.59263158 C15.8272848,13.3715789 13.1698013,15.9147368 9.30331126,15.9147368 L6.66066225,15.9147368 C2.69456954,15.9157895 0,13.3157895 0,9.37894737 L0,6.52631579 C0,2.70736842 2.53668874,0.155789474 6.30887417,0.00736842105 L6.66066225,0 L9.30331126,0 Z" id="Shape" fill="#706CF5"></path>
                <path d="M10.2961589,11.4389474 C9.63284768,11.8747368 8.83708609,12.1294737 7.98198675,12.1294737 C6.33536424,12.1294737 4.90913907,11.1884211 4.22251656,9.81789474 C3.87496689,9.63578947 3.55496689,9.44526316 3.27099338,9.25157895 C3.8410596,11.3042105 5.73456954,12.8094737 7.98198675,12.8094737 C9.31708609,12.8094737 10.5250331,12.2726316 11.4076821,11.4094737 C11.0633113,11.4410526 10.6903311,11.4452632 10.2950993,11.4305263 L10.2961589,11.4389474 Z M3.87284768,8.82315789 C3.59099338,8.65157895 3.33456954,8.47578947 3.10781457,8.29684211 C2.26649007,7.63157895 1.83417219,6.93894737 1.99523179,6.34947368 C2.15629139,5.76 2.88,5.38105263 3.93854305,5.23157895 C4.81801325,3.94736842 6.30145695,3.10315789 7.98198675,3.10315789 C10.5727152,3.10315789 12.6929801,5.10736842 12.8582781,7.64 C13.698543,8.30315789 14.1298013,8.99789474 13.9687417,9.58736842 C13.8066225,10.1768421 13.0786755,10.5578947 12.0084768,10.7063158 C11.7223841,10.7484211 11.4108609,10.7694737 11.0792053,10.78 C9.9984106,10.8010526 8.70569536,10.6326316 7.35364238,10.2705263 C5.9994702,9.90210526 4.79682119,9.39263158 3.87284768,8.82842105 L3.87284768,8.82315789 Z M11.6217219,10.04 C11.9735099,9.43368421 12.1769536,8.73263158 12.1811921,7.98315789 L12.1811921,7.95789474 C12.1811921,5.65263158 10.301457,3.78526316 7.98198675,3.78526316 C6.4402649,3.78526316 5.09245033,4.61157895 4.36238411,5.84210526 C3.99470199,6.46105263 3.78278146,7.18315789 3.78278146,7.95368421 C4.65695364,8.53578947 5.97933775,9.10947368 7.50834437,9.52210526 C9.08715232,9.94947368 10.5621192,10.1178947 11.6217219,10.04 L11.6217219,10.04 Z M12.4609272,9.90105263 C12.8815894,9.77789474 13.1528477,9.58526316 13.2259603,9.32 C13.3001325,9.05157895 13.1581457,8.74105263 12.8466225,8.41789474 L12.8402649,8.48105263 C12.7872848,8.98210526 12.6548344,9.46 12.4609272,9.90210526 L12.4609272,9.90105263 Z M3.54119205,5.92947368 L3.57721854,5.85578947 C3.0792053,5.97578947 2.7613245,6.18210526 2.68397351,6.46947368 C2.60556291,6.75578947 2.76874172,7.08736842 3.12370861,7.43368421 C3.18092715,6.90210526 3.32503311,6.39578947 3.54119205,5.92842105 L3.54119205,5.92947368 Z" id="Shape" fill="#FFFFFF"></path>
            </g>
        </g>
    </g>
</svg>