<?xml version="1.0" encoding="UTF-8"?>
<svg width="16px" height="16px" viewBox="0 0 16 16" version="1.1" xmlns="http://www.w3.org/2000/svg" xmlns:xlink="http://www.w3.org/1999/xlink">
    <!-- Generator: Sketch 46.2 (44496) - http://www.bohemiancoding.com/sketch -->
    <title>yandex</title>
    <desc>Created with Sketch.</desc>
    <defs>
        <linearGradient x1="-1380.60714%" y1="104.035714%" x2="-1380.60714%" y2="-4.71428571%" id="linearGradient-1">
            <stop stop-color="#D3D3D3" offset="0%"></stop>
            <stop stop-color="#FCF9F9" offset="100%"></stop>
        </linearGradient>
    </defs>
    <g id="Icons" stroke="none" stroke-width="1" fill="none" fill-rule="evenodd">
        <g id="Artboard" transform="translate(-32.000000, -412.000000)" fill-rule="nonzero">
            <g id="yandex" transform="translate(32.000000, 412.000000)">
                <ellipse id="Oval" stroke="url(#linearGradient-1)" stroke-width="0.74460179" fill="url(#linearGradient-1)" cx="7.82992509" cy="8.00104064" rx="7.45179429" ry="7.3075072"></ellipse>
                <path d="M7.84057051,0.343817024 C6.8526755,0.343817024 5.91215261,0.528070598 5.0434863,0.851688774 C4.98014605,0.908582938 4.89817631,0.951906016 4.83323925,0.946686368 C4.82419064,0.945642438 4.81567431,0.94042279 4.80609343,0.936769037 C4.37761526,1.11214921 3.97149247,1.32667674 3.58612825,1.56991234 C3.63616172,1.64925099 3.65106531,1.737985 3.54833701,1.78078612 C3.53077206,1.78757166 3.31307321,1.80949418 3.23695846,1.80792829 C2.1415447,2.5861778 1.26223297,3.63271723 0.700687047,4.85463683 C0.709735654,4.85307093 0.717719719,4.85411486 0.727300598,4.84889521 C0.812463961,4.84732932 0.935418567,4.8713397 1.0173883,4.88856454 C1.09297079,4.90370152 1.15418196,4.95328817 1.21911902,4.95798586 C1.40488161,4.97207891 1.44959237,4.83062644 1.60075734,4.75180976 C1.75724502,4.77321032 1.86103787,4.72571152 2.00208969,4.74137046 C2.09843075,4.75180976 2.16815825,4.85254897 2.24320846,4.85776861 C2.30654872,4.86403219 2.3619049,4.79983052 2.42311607,4.80922589 C2.48273042,4.81862125 2.58492646,4.94441477 2.59450734,5.01540198 C2.60728184,5.10361404 2.52797346,5.18295268 2.55405474,5.28003814 C2.64879898,5.3739918 2.82072252,5.3933045 2.95538709,5.44758884 C3.04321181,5.37660163 2.96709705,5.2450665 2.95538709,5.1427614 C2.95379028,5.09735046 2.96177434,5.05715917 2.95538709,5.01540198 C2.94740302,4.94493674 2.9165313,4.8802131 2.91599903,4.81966518 C2.91440222,4.54041402 3.14647239,4.40940085 3.33808995,4.29926628 C3.42112423,4.25124552 3.48659357,4.16720918 3.55845016,4.13171558 C3.66011392,4.08212892 3.7356964,4.07012373 3.81979523,4.02419083 C3.97202474,3.94067646 4.10243114,3.87386497 4.22112758,3.77886737 C4.27595149,3.65202993 4.22165985,3.48239137 4.23124072,3.35711981 C4.28606464,3.32423603 4.33343676,3.37121286 4.39198657,3.36703715 C4.48353719,3.34876838 4.49152125,3.22193093 4.54368381,3.17130035 C4.57402326,3.14207032 4.65652527,3.12171369 4.69431651,3.09300563 C4.78586713,3.02306234 4.81567431,2.91710349 4.89551496,2.88682953 C4.92425759,2.8753463 4.9902592,2.87900006 5.03550224,2.86699487 C5.09511659,2.85133592 5.17974768,2.78295853 5.27662101,2.75059672 C5.33996126,2.72919616 5.48420671,2.72449848 5.5081589,2.70153203 C5.53796608,2.67178003 5.50810568,2.58878763 5.51827205,2.54442062 C5.56670872,2.32258558 5.90842671,2.27560875 6.11015743,2.20148975 C6.25174152,2.14929327 6.39705151,2.05325174 6.55247464,2.08248177 C6.5221352,2.18791866 6.37735748,2.1503372 6.40184195,2.27821857 C6.43590729,2.4556866 6.67862288,2.22758799 6.74302767,2.20096778 C6.86545,2.15085916 7.07569706,2.11954127 7.23644291,2.06264711 C7.37749473,2.01253849 7.63032346,1.9352877 7.49725571,1.77765433 C7.38654333,1.77139075 7.33278396,1.90501374 7.23644291,1.94520503 C7.16990903,1.95564433 7.18268353,1.89039873 7.12573053,1.88517908 C7.07197116,1.8789155 7.04109944,1.9337218 6.98574326,1.92432644 C6.93038707,1.91545304 6.8526755,1.83037277 6.84415916,1.76721503 C6.82233605,1.60331809 6.98574326,1.53598463 7.05547076,1.4133229 C7.00916318,1.2650849 6.79998067,1.38304894 6.6727679,1.32511085 C6.68501013,1.2368988 6.77815756,1.17582892 6.88407949,1.15912604 C6.9703074,1.14503299 7.16458632,1.1523405 7.21621661,1.19670751 C7.24602378,1.22176182 7.21834569,1.28335366 7.26678235,1.32458888 C7.31788037,1.36999982 7.38068835,1.36478017 7.44722223,1.35486284 C7.47064216,1.24316237 7.29818634,1.27082651 7.3173481,1.19722947 C7.45307721,1.11058332 7.67343741,1.18157053 7.84003824,1.15756015 C7.93584703,1.1434671 8.03591398,1.07769953 8.12054507,1.03124467 C8.200918,0.986355693 8.30577539,0.908582938 8.39147102,0.98165801 C8.41435867,1.06204059 8.31695308,1.08813883 8.27117777,1.12833012 C8.11735144,1.26195311 7.95926695,1.41488879 7.84003824,1.5704343 C7.91349164,1.64037759 8.0465594,1.60488398 8.17057855,1.619499 C8.21901521,1.62576257 8.27969411,1.63933366 8.3313244,1.64872902 C8.39147102,1.65916832 8.45481127,1.65603653 8.50165112,1.66804172 C8.58628221,1.68787638 8.6086376,1.7766104 8.69220415,1.7766104 C8.82953007,1.7766104 8.83112688,1.63098222 8.75341531,1.54016035 C8.77789978,1.44777258 8.81675557,1.39922985 8.78322249,1.33450621 C8.72147905,1.21341038 8.49419933,1.32824264 8.48248936,1.17739481 C8.47556984,1.07926543 8.56605592,1.08396311 8.60278262,1.01088804 C8.58628221,0.821936781 8.76139938,0.807843731 8.74276989,0.638727136 C8.73478583,0.567739923 8.67357466,0.566695994 8.62247664,0.500406464 C8.59692763,0.468044646 8.58415313,0.404886906 8.55434595,0.377222771 C8.3201467,0.357388109 8.08275383,0.344338989 7.84323187,0.344338989 L7.84057051,0.343817024 Z M3.79903666,1.88831087 L3.8001012,1.88831087 C3.84694105,1.89457444 3.90336178,1.9441611 3.9597825,1.94833682 C4.01300961,1.94990271 4.05772037,1.91910679 4.09072118,1.92850216 C4.17482,1.94990271 4.20994988,2.07413034 4.1306415,2.13467825 C4.06517217,2.14250772 4.03962316,2.10649215 3.99012195,2.11536556 C3.85386057,2.13781004 3.80116574,2.39931441 3.69950198,2.390441 C3.60316092,2.3831335 3.55153063,2.15346899 3.64893623,2.08561356 C3.65532348,2.02610957 3.60422546,2.01671421 3.60795136,1.95773219 C3.63722627,1.92171661 3.719196,1.88256925 3.79903666,1.88883283 L3.79903666,1.88831087 Z M3.34713856,1.91910679 C3.37534892,1.92015072 3.39610749,1.9264143 3.40675291,1.93841949 C3.39344614,2.04281245 3.30987959,2.03602691 3.22684531,2.0850916 C3.08419668,2.16912793 3.00169467,2.29753127 2.95591936,2.47760913 C2.94261258,2.52980561 2.80209304,2.66864824 2.73396234,2.65455519 C2.57481331,2.62167141 2.77814084,2.33459077 2.81433527,2.29126769 C2.85478787,2.24272497 2.90854724,2.20044582 2.95591936,2.14459558 C3.00169467,2.09031124 3.03150184,2.01775814 3.07621261,1.98748418 C3.12464927,1.9546004 3.26303974,1.91545304 3.34713856,1.91858483 L3.34713856,1.91910679 Z M4.53569975,2.27143303 C4.58679777,2.27247696 4.63257307,2.2808284 4.65333164,2.30066306 C4.62033084,2.43011033 4.33503357,2.39618262 4.23017618,2.34920579 C4.23656344,2.30014109 4.31533955,2.28657001 4.38080888,2.28030643 C4.42711646,2.27874054 4.48460173,2.26986714 4.53516748,2.27143303 L4.53569975,2.27143303 Z M3.88526456,2.51049291 C3.91932991,2.50944898 3.95339525,2.51675649 3.98905741,2.52615185 C3.89644225,2.60183675 3.79690757,2.64463786 3.63775854,2.69370255 C3.56164378,2.71719097 3.42964057,2.746421 3.41686606,2.66290663 C3.40089793,2.56060153 3.52864298,2.58461191 3.59837048,2.57521654 C3.6861952,2.56321135 3.78253625,2.5136247 3.88526456,2.50997094 L3.88526456,2.51049291 Z M13.8594912,3.0919617 C13.847249,3.1201478 13.8392649,3.14728996 13.8403295,3.17443213 C13.8467167,3.22193093 13.8994115,3.26734187 13.9116538,3.33154354 C13.918041,3.36547125 13.8951534,3.43906829 13.9116538,3.46986421 C13.9600904,3.56173002 14.0867709,3.49596245 14.177257,3.50066013 C14.0745287,3.36233946 13.9718004,3.22349683 13.8600235,3.09248366 L13.8594912,3.0919617 Z M14.3731327,3.76738415 C14.3587614,3.83523957 14.3119216,3.92345162 14.2735981,3.97982382 C14.1863056,4.10979306 14.0670769,4.11605663 13.941461,4.18547795 C13.8366036,4.24341604 13.7918928,4.3405015 13.7301494,4.4412407 C13.6636155,4.55033135 13.6226306,4.61609891 13.6497764,4.77373228 C13.5598226,4.94754656 13.4240935,5.05454934 13.2383309,5.13701978 C13.183507,5.16155213 13.1084568,5.17042553 13.0578911,5.20591914 C13.0179707,5.23410524 12.9950831,5.30979013 12.9375978,5.37242591 C12.867338,5.44915473 12.7933524,5.48151655 12.7560934,5.53997661 C12.7273508,5.58538755 12.7177699,5.67516549 12.6858336,5.73571341 C12.6427197,5.81818385 12.5517013,5.85837514 12.4952806,5.9418895 C12.4697316,5.9805149 12.4521666,6.05880962 12.4239563,6.1094402 C12.3600837,6.2221846 12.2515005,6.30361111 12.2632104,6.40330639 C12.2749204,6.49934791 12.386165,6.51605078 12.3941491,6.60008712 C12.3957459,6.64758591 12.3622128,6.67629398 12.3643419,6.72796849 C12.3659387,6.80313142 12.4181013,6.85637183 12.4239563,6.91430993 C12.4388599,7.05993811 12.3733905,7.11839816 12.3451802,7.21809344 C12.3318734,7.26559224 12.3377284,7.31935461 12.3249539,7.35641411 C12.2999371,7.42948918 12.1961443,7.49525675 12.1940152,7.58138094 C12.1929506,7.64245082 12.25842,7.69203748 12.2637427,7.77816167 C12.2653395,7.83766566 12.2339355,7.9008234 12.2445809,7.95510774 C12.2658718,8.06211052 12.4612152,8.18633814 12.5458463,8.26933055 C12.6592201,8.38050905 12.8082559,8.46611128 12.8572249,8.58355336 C12.8982098,8.68272667 12.8982098,8.81217394 12.9775181,8.88733687 C13.0360679,8.94266514 13.1334735,8.97711482 13.2085238,9.03453094 C13.2787835,9.08829332 13.3548983,9.13474819 13.4294162,9.19164235 C13.5518386,9.28507405 13.7365366,9.47141548 13.9313478,9.45732243 C14.0330116,9.45053689 14.1373367,9.36911038 14.2528395,9.34875375 C14.3715359,9.32839713 14.5253623,9.3169139 14.6451232,9.32944106 C14.7366739,9.33831446 14.8314181,9.39207683 14.9266946,9.38790111 C15.0272938,9.38163754 15.1427966,9.30908443 15.2572349,9.26001974 C15.3493178,9.22087238 15.4621593,9.1775493 15.5861784,9.14570945 C15.6431314,8.77250461 15.6734709,8.38990442 15.6734709,8.00051868 C15.6734709,6.43462428 15.1938947,4.97990838 14.3731327,3.76895004 L14.3731327,3.76738415 Z M1.41872065,6.34171454 C1.25211982,6.35058794 1.14247199,6.35789545 1.04772775,6.4001746 C0.830561176,6.49673809 0.872610586,6.78381873 0.65544401,6.85167415 C0.580393796,6.87516257 0.477133218,6.8762065 0.39463121,6.89082151 C0.323306893,6.90387063 0.236546717,6.9414521 0.163093316,6.9398862 C0.142867017,6.9398862 0.113592111,6.92474922 0.088043102,6.91691975 C0.0688813453,7.05158667 0.0529132147,7.18781948 0.0406709812,7.32457426 C0.247192137,7.36319965 0.353646341,7.6309676 0.536215301,7.71917965 C0.586248777,7.74371199 0.651718113,7.74475592 0.716122906,7.75884897 C0.767753195,7.7703322 0.807673522,7.79173276 0.857706998,7.80843563 C0.964161202,7.84340727 1.09403533,7.83923155 1.17919869,7.87629105 C1.30694374,7.93161932 1.40115571,8.16702545 1.51133581,8.23018319 C1.51772306,8.29386289 1.49856131,8.37894316 1.52144896,8.42591999 C1.57307925,8.49481934 1.64706492,8.47968236 1.73276056,8.52457133 C1.83548886,8.57885567 1.86689285,8.71822028 1.96376618,8.76102139 C1.99729925,8.7756364 2.08139807,8.77354854 2.1340929,8.78972945 C2.26716066,8.82887681 2.31080688,8.97972464 2.42471288,8.94684086 C2.4997631,8.9254403 2.49337584,8.85027737 2.50561808,8.78033409 C2.55511928,8.72813761 2.60887865,8.6451452 2.68605795,8.64357931 C2.81060937,8.63731573 2.82178706,8.76937283 2.86756237,8.88785884 C2.89311138,8.95467033 2.96017753,9.01313039 2.97774247,9.08359564 C3.00861419,9.2057354 2.99317833,9.57058879 2.96656478,9.64366387 C2.93516079,9.73291985 2.81114164,9.77102328 2.73502689,9.87019659 C2.69936473,9.91665146 2.68179978,9.98502884 2.65465396,10.0173907 C2.60568503,10.0758507 2.53223163,10.0909877 2.49550493,10.145272 C2.47474636,10.175546 2.45452006,10.2407916 2.43429376,10.2820268 C2.37414713,10.4067764 2.29324194,10.4955104 2.34380769,10.6453143 C2.36509853,10.7069062 2.46356867,10.7481414 2.46410094,10.8212165 C2.46415416,10.9068187 2.27833835,10.9830255 2.26396703,11.0769792 C2.25278934,11.1469225 2.3214523,11.2711501 2.34433996,11.361972 C2.36084036,11.4303494 2.49337584,11.4731505 2.53489298,11.5190834 C2.60515276,11.5963342 2.66157349,11.7059468 2.72597828,11.8030322 C2.85319105,11.9940714 2.953258,12.2273896 3.07727715,12.4121652 C3.14274649,12.5092506 3.23482937,12.5964187 3.2784756,12.6971579 C3.30083098,12.7477885 3.29763736,12.8083364 3.31786365,12.8542694 C3.38972024,13.0124247 3.7064215,13.1778875 3.87036097,13.2567042 C3.947008,13.2927198 4.03163909,13.3057689 4.10189887,13.3443943 C4.20835307,13.4023324 4.4191324,13.5583999 4.47289177,13.6492217 C4.52079616,13.7311702 4.55060334,13.9305608 4.57402326,14.061052 C4.60542725,14.2333004 4.57407649,14.3658794 4.58413641,14.5522208 C4.59052366,14.6529601 4.62352447,14.7547432 4.62458901,14.8560044 C4.62464224,14.891498 4.60542725,14.9175962 4.60383044,14.9541337 C4.60383044,14.9598754 4.60595952,14.9666609 4.60595952,14.9724025 C5.59225772,15.4087651 6.6855424,15.6572203 7.84216733,15.6572203 C8.05134984,15.6572203 8.25787099,15.6462591 8.46226307,15.6306001 C8.47131167,15.6154631 8.47929574,15.5998042 8.4910057,15.5857111 C8.53837782,15.5251632 8.57989496,15.4724448 8.61129895,15.4192044 C8.64110613,15.2401705 8.53837782,15.1148989 8.58149177,14.9577875 C8.62939617,14.7813634 8.878499,14.6738386 9.05361617,14.5945 C9.1137628,14.5673578 9.17497396,14.5229908 9.2239429,14.5062879 C9.34476842,14.4650527 9.49593339,14.4874972 9.60664576,14.4478279 C9.7950697,14.3804944 9.81423146,14.1831917 9.90737889,14.015641 C9.95155738,13.9363024 10.0090427,13.8569637 10.017559,13.8005915 C10.0250108,13.7499609 9.99839723,13.7019402 10.0063813,13.6419142 C10.0154299,13.5824102 10.0697215,13.5312577 10.0867542,13.4660121 C10.1085773,13.3809318 10.1181582,13.2561822 10.1181582,13.1617066 C10.1181582,13.0839339 10.0808992,13.0155565 10.0782379,12.9456132 C10.0649311,12.6908944 10.1724499,12.6627083 10.2687909,12.5238656 C10.3172276,12.4549663 10.3353248,12.3766716 10.3688579,12.3270849 C10.5306683,12.0911568 10.8111751,11.9773685 10.7909488,11.6203446 C10.7845615,11.5023805 10.7084468,11.2356565 10.6195575,11.198075 C10.5689918,11.1766745 10.4518921,11.1965091 10.3784387,11.168845 C10.1410459,11.0821989 10.0015909,10.7945962 9.75568165,10.7763275 C9.70351909,10.7700639 9.65508242,10.7972061 9.59600034,10.7961621 C9.49859474,10.7898986 9.35168794,10.7293506 9.2441692,10.7178674 C9.17550623,10.7110819 9.08395562,10.7377021 9.04297075,10.7178674 C8.98016277,10.6881154 8.97377552,10.5748491 8.9226775,10.5414433 C8.88275717,10.5137792 8.80344879,10.5049058 8.74223762,10.4814174 C8.64323521,10.4443579 8.56499137,10.4010348 8.45108537,10.3932053 C8.41595549,10.3916394 8.37177699,10.4093862 8.33079212,10.4036446 C8.26745187,10.3932053 8.21795067,10.3201302 8.15940086,10.2856806 C8.08647973,10.2423575 8.01888131,10.2214789 7.98907413,10.1593651 C8.05507574,9.94796934 7.87303905,9.88898732 7.82832828,9.76684756 C7.80703744,9.70943143 7.81661832,9.64053208 7.7985211,9.58990149 C7.77190755,9.51682642 7.69845415,9.47454727 7.61701669,9.41347739 C7.4717067,9.30438675 7.34289711,9.20155968 7.13531141,9.17650537 C7.0437608,9.16502214 6.95327472,9.20364754 6.84309462,9.19634003 C6.725995,9.18955449 6.57962047,9.08933725 6.49179575,8.99172983 C6.40663239,8.89621027 6.36564752,8.81060804 6.29112957,8.76519711 C6.2208698,8.7208301 6.12772237,8.72239599 6.07981798,8.67750702 C6.05852714,8.65819432 6.06225304,8.62478858 6.03936538,8.57885567 C6.00423549,8.5073465 5.94462114,8.46767717 5.98879963,8.38207494 C5.90895898,8.34188365 5.9068299,8.45671591 5.81900518,8.4421009 C5.74076134,8.33405418 5.67475973,8.28237967 5.49751348,8.31421952 C5.41660829,8.32883453 5.37083298,8.42905178 5.27662101,8.4316616 C5.19890944,8.43792518 5.13823054,8.3471033 5.03550224,8.33301025 C4.95832294,8.32257096 4.87049822,8.35336688 4.81514203,8.34344955 C4.7294464,8.32674668 4.70283285,8.25680339 4.62458901,8.20669477 C4.56710374,8.17015724 4.4558591,8.10699949 4.42339056,8.10804342 C4.32225907,8.114307 4.25040248,8.31787327 4.11147975,8.24584213 C4.04388133,8.1618058 4.22165985,8.11796076 4.14128692,8.03966604 C4.08060803,7.98016205 4.02951001,8.0668082 3.98054107,8.09969199 C3.92465262,8.13727345 3.87249006,8.17433295 3.81074662,8.19677744 C3.67288842,8.24688606 3.58666052,8.22078782 3.4786095,8.27507216 C3.37854255,8.32570275 3.37428438,8.41026104 3.31786365,8.51047828 C3.27155608,8.59294872 3.16616641,8.71247866 3.09697118,8.71769831 C3.01287236,8.72396189 2.93249944,8.60286605 2.85585241,8.57050424 C2.62591133,8.47289682 2.51466668,8.65715039 2.32358139,8.65923825 C2.14633514,8.66550183 1.89297413,8.37946512 1.90202274,8.2166121 C1.90361955,8.11743879 1.96057255,7.96659096 1.97228251,7.84340727 C1.98346021,7.74579985 2.0515909,7.68681783 2.05265544,7.59756185 C2.05425225,7.47855388 1.89084505,7.38668807 1.81153667,7.37259502 C1.62417727,7.33918927 1.36336447,7.44619206 1.14832697,7.36215572 C1.10734211,7.2958662 1.19676364,7.24941133 1.21965129,7.18520966 C1.23295807,7.14867212 1.22018356,7.09908547 1.23881305,7.05889418 C1.26223297,6.9962584 1.32983139,6.94771567 1.35963857,6.88194811 C1.38146168,6.83131752 1.38784893,6.75824245 1.41020432,6.69560668 C1.43681787,6.6240975 1.48472226,6.5781646 1.49057724,6.52805597 C1.49749676,6.46176644 1.47248003,6.38555958 1.41925292,6.34171454 L1.41872065,6.34171454 Z M4.1013666,8.41965641 C4.16949729,8.42591999 4.17801362,8.56319673 4.10828612,8.57467996 C4.03323591,8.58616318 3.99491239,8.45932573 4.06783352,8.42644195 C4.08007576,8.42017837 4.09178572,8.42017837 4.1013666,8.42070034 L4.1013666,8.41965641 L4.1013666,8.41965641 Z" id="Shape" fill-opacity="0.433" fill="#ABABAB"></path>
                <polyline id="Shape" fill-opacity="0.898" fill="#FF5061" points="4.19591837 3.36256 2.81077551 4.72 6.8597551 8.68832 6.8597551 13.40576 8.81893878 13.40576 8.81893878 8.6832 12.8630204 4.72 11.4778776 3.36256 7.83673469 6.93088 4.19591837 3.36256"></polyline>
            </g>
        </g>
    </g>
</svg>