<svg xmlns="http://www.w3.org/2000/svg" width="24" height="24" viewBox="0 0 24 24">
  <g>
    <path d="M23.7,3.1 L20.9,0.3 C20.5,-0.1 19.9,-0.1 19.5,0.3 L0.3,19.5 C-0.1,19.9 -0.1,20.5 0.3,20.9 L3.1,23.7 C3.5,24.1 4.1,24.1 4.5,23.7 L23.7,4.5 C24.1,4.1 24.1,3.5 23.7,3.1 Z M3.8,21.6 L2.4,20.2 L15.2,7.4 L16.6,8.8 L3.8,21.6 Z M17.3,8.1 L15.9,6.7 L20.1,2.5 L21.5,3.9 L17.3,8.1 Z"/>
    <polygon points="12 6 12.8 3.8 15 3 12.8 2.2 12 0 11.2 2.2 9 3 11.2 3.8"/>
    <polygon points="5 9 5.8 6.8 8 6 5.8 5.2 5 3 4.2 5.2 2 6 4.2 6.8"/>
    <polygon points="21 12 20.2 14.2 18 15 20.2 15.8 21 18 21.8 15.8 24 15 21.8 14.2"/>
  </g>
</svg>
