<?xml version="1.0" encoding="utf-8"?>
<!-- Generator: Adobe Illustrator 21.0.0, SVG Export Plug-In . SVG Version: 6.00 Build 0)  -->
<svg version="1.1" id="a7caaf2e-2f96-406a-9bd7-f6c50d32e240"
	 xmlns="http://www.w3.org/2000/svg" xmlns:xlink="http://www.w3.org/1999/xlink" x="0px" y="0px" viewBox="0 0 48 48"
	 style="enable-background:new 0 0 48 48;" xml:space="preserve">
<title>twitter</title>
<path d="M24,0C10.7,0,0,10.7,0,24s10.7,24,24,24s24-10.7,24-24S37.3,0,24,0z M24,46C11.8,46,2,36.2,2,24S11.8,2,24,2s22,9.8,22,22
	S36.2,46,24,46z"/>
<path d="M22.3,31.4c-3.5,0.4-6.6-1.2-6.8-3.6c-0.2-2.3,2.4-4.5,6-4.8c3.5-0.4,6.6,1.2,6.8,3.6C28.5,28.9,25.8,31,22.3,31.4
	 M29.4,23.7c-0.3-0.1-0.5-0.2-0.4-0.5c0.3-0.9,0.4-1.6,0-2.1c-0.7-1-2.6-0.9-4.8,0c0,0-0.7,0.3-0.5-0.2c0.3-1.1,0.3-2-0.2-2.5
	c-1.2-1.2-4.3,0-7,2.7c-2,2-3.2,4.1-3.2,6c0,3.5,4.5,5.7,8.9,5.7c5.8,0,9.7-3.4,9.7-6C31.9,25,30.6,24.1,29.4,23.7"/>
<path d="M33.2,17.2c-1.4-1.6-3.5-2.1-5.4-1.7l0,0c-0.4,0.1-0.7,0.5-0.6,1c0.1,0.4,0.5,0.7,1,0.6c1.4-0.3,2.8,0.1,3.8,1.2
	c1,1.1,1.3,2.6,0.8,3.9l0,0c-0.1,0.4,0.1,0.9,0.5,1c0.4,0.1,0.9-0.1,1-0.5v0C35,20.9,34.6,18.8,33.2,17.2"/>
<path d="M31.1,19.2c-0.7-0.8-1.7-1-2.6-0.8c-0.4,0.1-0.6,0.5-0.5,0.8c0.1,0.4,0.5,0.6,0.8,0.5l0,0c0.5-0.1,0.9,0,1.3,0.4
	c0.3,0.4,0.4,0.9,0.3,1.3l0,0c-0.1,0.4,0.1,0.8,0.5,0.9c0.4,0.1,0.8-0.1,0.9-0.5C31.9,21,31.7,19.9,31.1,19.2"/>
<path d="M22.5,27.2c-0.1,0.2-0.4,0.3-0.6,0.2c-0.2-0.1-0.3-0.3-0.2-0.5c0.1-0.2,0.4-0.3,0.6-0.2C22.5,26.7,22.6,27,22.5,27.2
	 M21.4,28.6c-0.3,0.5-1.1,0.8-1.6,0.5c-0.5-0.2-0.7-0.9-0.4-1.4c0.3-0.5,1-0.8,1.6-0.5C21.5,27.4,21.7,28.1,21.4,28.6 M22.6,24.8
	c-1.7-0.4-3.6,0.4-4.3,1.9c-0.7,1.5,0,3.2,1.7,3.7c1.8,0.6,3.8-0.3,4.6-1.9C25.3,26.9,24.4,25.2,22.6,24.8"/>
</svg>
