<?xml version="1.0" encoding="UTF-8"?>
<svg width="40px" height="33px" viewBox="0 0 40 33" version="1.1" xmlns="http://www.w3.org/2000/svg" xmlns:xlink="http://www.w3.org/1999/xlink">
    <!-- Generator: Sketch 44.1 (41455) - http://www.bohemiancoding.com/sketch -->
    <title>desktop-mobile</title>
    <desc>Created with Sketch.</desc>
    <defs></defs>
    <g id="Icons" stroke="none" stroke-width="1" fill="none" fill-rule="evenodd">
        <g id="Artboard" transform="translate(-25.000000, -36.000000)">
            <g id="desktop-mobile" transform="translate(25.000000, 36.000000)">
                <rect id="Rectangle" fill="#AFAFAF" x="10" y="29" width="16" height="3" rx="1.5"></rect>
                <path d="M34,0 L2,0 C1.0792,0 0,1.03961481 0,2 L0,24 C0,24.9607704 1.0792,26 2,26 L34,26 C34.9208,26 36,24.9607704 36,24 L36,2 C36,1.03961481 34.9208,0 34,0 L34,0 Z M33,21 L3,21 L3,3 L33,3 L33,21 L33,21 Z" id="Shape" fill="#AFAFAF"></path>
                <rect id="Rectangle-2" fill="#FFFFFF" x="21" y="6" width="19" height="27"></rect>
                <path d="M38.9898078,19.9910235 L38.9909731,19.9910235 C38.9909731,16.6563953 38.9913615,13.3217671 38.9898078,9.98713893 C38.9898078,9.86738709 38.986312,9.74494851 38.9630067,9.62788341 C38.7707375,8.66718194 37.9608766,8.00893063 36.9474823,8.00317333 C35.7604632,7.99626457 33.8051443,8.00278951 32.6181251,8.00278951 C30.1135768,8.00240569 27.6090285,8.00087041 25.1044802,8.00163805 C24.5346644,8.00163805 24.0067982,8.13213685 23.5838061,8.53668313 C23.1464424,8.95504694 23.0031145,9.48587 23.0031145,10.0696602 C23.0019492,16.6744349 22.9984534,23.2795933 23.000784,29.8843679 C23.000784,30.1142761 23.0244777,30.3522445 23.0858485,30.572941 C23.3305547,31.4538079 24.1272092,32.0034382 25.1347772,31.9999838 C26.9397766,31.9938427 28.7451643,31.9777223 30.5501637,31.9758032 C32.3959474,31.9738841 35.0096425,31.9811766 36.8554262,31.9907721 C38.1985912,31.9976809 39.0100058,30.995143 38.9999068,29.8740048 C38.9707751,26.5800615 38.9898078,23.2857344 38.9898078,19.9910235 L38.9898078,19.9910235 Z M30.9980149,31.2407878 C30.3272092,31.2388687 29.7853598,30.6949958 29.7869135,30.0248461 C29.7884672,29.3692815 30.3310934,28.8288629 30.989858,28.8261762 C31.6661016,28.8234895 32.2149426,29.3631404 32.212612,30.0283005 C32.2102815,30.6976825 31.6645479,31.2423231 30.9980149,31.2407878 L30.9980149,31.2407878 Z M37.1782053,28.0520112 L24.8213202,28.0520112 L24.8213202,10.7808787 L37.1782053,10.7808787 L37.1782053,28.0520112 L37.1782053,28.0520112 Z" id="Shape" fill="#AFAFAF"></path>
            </g>
        </g>
    </g>
</svg>