<?xml version="1.0" encoding="UTF-8"?>
<svg width="21px" height="16px" viewBox="0 0 21 16" version="1.1" xmlns="http://www.w3.org/2000/svg" xmlns:xlink="http://www.w3.org/1999/xlink">
    <!-- Generator: Sketch 44.1 (41455) - http://www.bohemiancoding.com/sketch -->
    <title>email</title>
    <desc>Created with Sketch.</desc>
    <defs></defs>
    <g id="Icons" stroke="none" stroke-width="1" fill="none" fill-rule="evenodd">
        <g id="Artboard" transform="translate(-105.000000, -133.000000)" fill="#0D7AC7">
            <path d="M124.6875,133 L106.3125,133 C105.95703,133 105.649415,133.131944 105.389648,133.395835 C105.129882,133.659723 105,133.972221 105,134.333333 L105,136.583333 L115.5,140.833333 L126,136.583333 L126,134.333333 C126,133.972221 125.870118,133.659723 125.61035,133.395835 C125.350585,133.131944 125.04297,133 124.6875,133 L124.6875,133 Z M105,138.75 L105,147.666667 C105,148.027779 105.129882,148.340277 105.389648,148.604167 C105.649415,148.868057 105.95703,149 106.3125,149 L124.6875,149 C125.04297,149 125.350585,148.868057 125.61035,148.604167 C125.870118,148.340277 126,148.027779 126,147.666667 L126,138.75 L115.5,143 L105,138.75 Z" id="email"></path>
        </g>
    </g>
</svg>