<?xml version="1.0" encoding="UTF-8"?>
<svg width="16px" height="16px" viewBox="0 0 16 16" version="1.1" xmlns="http://www.w3.org/2000/svg" xmlns:xlink="http://www.w3.org/1999/xlink">
    <!-- Generator: Sketch 44.1 (41455) - http://www.bohemiancoding.com/sketch -->
    <title>facebook</title>
    <desc>Created with Sketch.</desc>
    <defs></defs>
    <g id="Icons" stroke="none" stroke-width="1" fill="none" fill-rule="evenodd">
        <g id="Artboard" transform="translate(-29.000000, -133.000000)" fill="#0D7AC7">
            <path d="M43.2125825,133 L30.7874187,133 C30.2899468,133 29.8676807,133.176426 29.5206074,133.529284 C29.1735341,133.882142 29,134.301515 29,134.787418 L29,147.229935 C29,147.715838 29.1735341,148.132319 29.5206074,148.479393 C29.8676807,148.826466 30.2899468,149 30.7874187,149 L36.9999989,149 L36.9999989,142.787419 L35.229936,142.787419 L35.229936,140.583515 L36.9999989,140.583515 L36.9999989,138.761388 C36.9999989,137.801152 37.2747619,137.014464 37.8242945,136.401302 C38.3738271,135.788139 39.2154684,135.481561 40.3492408,135.481561 L41.9457701,135.481561 L41.9457701,137.806943 L40.8872006,137.806943 C40.4475759,137.806943 40.1352137,137.942877 39.9501096,138.21475 C39.7650032,138.486625 39.6724523,138.772957 39.6724523,139.073753 L39.6724523,140.583515 L41.9457701,140.583515 L41.4425152,142.787419 L39.6724523,142.787419 L39.6724523,149 L43.2125825,149 C43.7100532,149 44.1323188,148.826466 44.4793926,148.479393 C44.8264664,148.132319 45,147.715838 45,147.229935 L45,134.787418 C45,134.301515 44.8264664,133.882142 44.4793926,133.529284 C44.1323188,133.176426 43.7100532,133 43.2125825,133 L43.2125825,133 Z" id="facebook"></path>
        </g>
    </g>
</svg>