<?xml version="1.0" encoding="UTF-8"?>
<svg width="16px" height="15px" viewBox="0 0 16 15" version="1.1" xmlns="http://www.w3.org/2000/svg" xmlns:xlink="http://www.w3.org/1999/xlink">
    <!-- Generator: Sketch 44.1 (41455) - http://www.bohemiancoding.com/sketch -->
    <title>installation</title>
    <desc>Created with Sketch.</desc>
    <defs></defs>
    <g id="Icons" stroke="none" stroke-width="1" fill="none" fill-rule="evenodd">
        <g id="Artboard" transform="translate(-305.000000, -126.000000)" fill="#161616">
            <g id="installation" transform="translate(305.000000, 126.000000)">
                <path d="M13.94896,9 C13.82512,9 13.72368,9.0955107 13.72368,9.21211208 L13.72368,12.9466707 C13.72368,13.0632721 13.62224,13.1587828 13.4984,13.1587828 L2.36656,13.1587828 C2.24272,13.1587828 2.14128,13.0632721 2.14128,12.9466707 L2.14128,9.21211208 C2.14128,9.0955107 2.03984,9 1.916,9 L0.22528,9 C0.10144,9 0,9.0955107 0,9.21211208 L0,14.7878879 C0,14.9044893 0.10144,15 0.22528,15 L15.77472,15 C15.89856,15 16,14.9044893 16,14.7878879 L16,9.21211208 C16,9.0955107 15.89856,9 15.77472,9 L13.94896,9 L13.94896,9 Z" id="Shape"></path>
                <path d="M9.64757338,6.35502455 C9.44211802,6.35502455 9.27410855,6.19451855 9.27410855,5.99839731 L9.27410855,0.356627237 C9.27410855,0.160506 9.10609909,0 8.90064373,0 L7.09909846,0 C6.8936431,0 6.72563364,0.160506 6.72563364,0.356627237 L6.72563364,5.99839731 C6.72563364,6.19451855 6.55762418,6.35502455 6.35216882,6.35502455 L4.21791842,6.35502455 C4.01246306,6.35502455 3.93906248,6.48767152 4.05504534,6.64960213 L7.78952789,11.878552 C7.90534506,12.0404827 8.09472851,12.0404827 8.21054569,11.878552 L11.9450282,6.64976042 C12.0608454,6.48782981 11.9876105,6.35518284 11.7821552,6.35518284 L9.64757338,6.35518284 L9.64757338,6.35502455 Z" id="Shape"></path>
            </g>
        </g>
    </g>
</svg>