<?xml version="1.0" encoding="UTF-8"?>
<svg width="32px" height="32px" viewBox="0 0 32 32" version="1.1" xmlns="http://www.w3.org/2000/svg" xmlns:xlink="http://www.w3.org/1999/xlink">
    <!-- Generator: Sketch 44.1 (41455) - http://www.bohemiancoding.com/sketch -->
    <title>logo-abb</title>
    <desc>Created with Sketch.</desc>
    <defs></defs>
    <g id="Icons" stroke="none" stroke-width="1" fill="none" fill-rule="evenodd">
        <g id="Artboard" transform="translate(-239.000000, -36.000000)">
            <g id="logo-abb" transform="translate(239.000000, 36.000000)">
                <path d="M28.1142857,9.79428571 C20.205357,13.7563713 13.790657,20.1710713 9.82857143,28.08 C9.47047619,28.7961905 9.1352381,29.5238095 8.82285714,30.2628571 C8.57904762,30.8266667 8.35047619,31.3942857 8.13714286,31.9657143 C13.5942086,29.9234071 18.5481481,26.7312148 22.6628571,22.6057143 C26.7773766,18.4954354 29.9615044,13.5497093 32,8.10285714 C31.4285714,8.31619048 30.8609524,8.5447619 30.2971429,8.78857143 C29.5580952,9.10095238 28.8304762,9.43619048 28.1142857,9.79428571 L28.1142857,9.79428571 Z" id="Shape" fill="#6E6E6D"></path>
                <path d="M9.89714286,0 L0,9.89714286 L0,23.8971429 L8.10285714,32 L8.10285714,32 C8.31619048,31.4285714 8.5447619,30.8609524 8.78857143,30.2971429 L1.69142857,23.2 L1.69142857,10.6285714 L10.5942857,1.69142857 L23.1657143,1.69142857 L30.2628571,8.78857143 C30.8266667,8.5447619 31.3942857,8.31619048 31.9657143,8.10285714 L31.9657143,8.10285714 L23.8971429,0 L9.89714286,0 L9.89714286,0 Z" id="Shape" fill="#D4D4D4"></path>
                <path d="M3.94285714,22.2628571 L3.94285714,11.5314286 L11.5314286,3.94285714 L22.2628571,3.94285714 L28.1142857,9.79428571 C28.8304762,9.43619048 29.5580952,9.10095238 30.2971429,8.78857143 L23.2,1.69142857 L10.6285714,1.69142857 L1.69142857,10.5942857 L1.69142857,23.1657143 L8.78857143,30.2628571 C9.10095238,29.5009524 9.43619048,28.7733333 9.79428571,28.08 L3.94285714,22.2628571 Z" id="Shape" fill="#FFFFFF"></path>
                <path d="M11.5314286,3.94285714 L3.94285714,11.5314286 L3.94285714,22.2628571 L9.79428571,28.1142857 C13.7563713,20.205357 20.1710713,13.790657 28.08,9.82857143 L22.2628571,3.94285714 L11.5314286,3.94285714 L11.5314286,3.94285714 Z" id="Shape" fill="#DA001B"></path>
                <path d="M17.4742857,17.4742857 C14.8400574,20.0915105 12.5753497,23.0560091 10.7428571,26.2857143 C15.1957707,29.0946555 21.0002296,28.4458444 24.723037,24.723037 C28.4458444,21.0002296 29.0946555,15.1957707 26.2857143,10.7428571 C23.0560091,12.5753497 20.0915105,14.8400574 17.4742857,17.4742857 L17.4742857,17.4742857 Z" id="Shape" fill="#FFFFFF"></path>
                <path d="M13.7142857,22.9942857 L13.9428571,23.0628571 L13.8057143,24 L14.1942857,24.5257143 L14.1257143,25.4057143 L14.64,26.2857143 L15.3028571,26.8685714 L16,26.8685714 L16,26.6285714 L15.5085714,26.2171429 L15.5085714,26.0114286 L15.6,25.76 L15.6,25.5085714 L15.3485714,25.5085714 L15.1771429,25.3028571 L15.4514286,25.04 L15.4514286,24.8342857 L15.1428571,24.7428571 L15.1428571,24.56 L15.5771429,24.4914286 L16.24,24.1714286 L16.4685714,23.76 L17.0057143,23.0628571 L17.2342857,22.8571429 L17.0742857,22.16 L17.0742857,22.16 L17.2914286,21.7942857 L17.9314286,21.7942857 L18.3657143,21.4514286 L18.5028571,20.1028571 L18.9828571,19.4971429 L19.0628571,19.1085714 L18.6285714,18.9714286 L18.2857143,18.4914286 L17.3485714,18.4914286 L17.0742857,18.3885714 L16.7085714,18.2857143 C15.6477978,19.3722801 14.6481645,20.5168984 13.7142857,21.7142857 L13.7142857,22.9371429 L13.7142857,22.9942857 Z" id="Shape" fill="#059CD0"></path>
                <path d="M26.2857143,10.7428571 C26.6778828,11.3455141 27.0108607,11.9846785 27.28,12.6514286 C27.4171429,12.9866667 27.5352381,13.3257143 27.6342857,13.6685714 L27.1085714,13.6685714 L26.5371429,13.2457143 L25.9428571,13.3028571 L25.9428571,13.7142857 L25.7485714,13.7142857 L25.5428571,13.5657143 L24.5028571,13.3028571 L24.5028571,12.5714286 L23.2114286,12.6742857 C22.16,13.4361905 21.1352381,14.1980952 20.1371429,14.96 L20.1371429,15.1542857 L20.4571429,15.1542857 L20.3885714,15.5314286 L20.2057143,15.6 L20.2057143,16.5942857 L21.3485714,17.8628571 L21.84,17.8628571 L21.84,17.7828571 L22.72,17.7828571 L22.9714286,17.5542857 L23.4628571,17.5542857 L23.7371429,17.8285714 L24.48,17.9085714 L24.3771429,18.8914286 L25.1428571,20.4 L24.7085714,21.2228571 L24.7085714,21.6114286 L25.0514286,21.9542857 L25.0514286,22.8571429 L25.4971429,23.4628571 L25.4971429,24.0342857 C25.2761905,24.3009524 25.04,24.5638095 24.7885714,24.8228571 C21.0326602,28.5516127 15.1865238,29.1604861 10.7428571,26.2857143 C10.4685714,26.7809524 10.2019048,27.28 9.94285714,27.7828571 C15.0572251,30.9954256 21.7126838,30.2493741 25.9888215,25.9841658 C30.2649592,21.7189575 31.0280408,15.0654299 27.8285714,9.94285714 C27.3257143,10.1714286 26.8114286,10.4380952 26.2857143,10.7428571 L26.2857143,10.7428571 Z" id="Shape" fill="#059CD0"></path>
                <path d="M30.8571429,8.53714286 L30.2514286,8.78857143 L29.9771429,8.90285714 C29.3980952,9.15428571 28.8266667,9.42095238 28.2628571,9.70285714 L28.08,9.79428571 L27.2571429,10.2171429 L26.0228571,10.8914286 L25.8742857,10.9828571 C24.6009964,11.7191402 23.3686999,12.5241389 22.1828571,13.3942857 L21.8514286,13.7142857 C21.4247619,14.0342857 21.0019048,14.3657143 20.5828571,14.7085714 C20.0495238,15.1428571 19.52,15.5961905 18.9942857,16.0685714 L18.3771429,16.64 L17.4628571,17.52 C16.467286,18.488739 15.5213171,19.5071812 14.6285714,20.5714286 L14.1942857,21.12 C13.7219048,21.7219048 13.2685714,22.3352381 12.8342857,22.96 L12.5028571,23.44 L12.1371429,24 L11.8171429,24.4914286 L11.7028571,24.6742857 L11.4285714,25.1428571 L10.8228571,26.16 L10.4342857,26.8571429 C10.2057143,27.2838095 9.98095238,27.7104762 9.76,28.1371429 L9.62285714,28.4114286 C9.35619048,28.952381 9.1047619,29.4971429 8.86857143,30.0457143 L8.75428571,30.32 L8.57142857,30.7428571 C8.41904762,31.1542857 8.26285714,31.5733333 8.10285714,32 C9.36,31.527619 10.5980952,30.9904762 11.8171429,30.3885714 C11.9771429,30.0457143 12.1371429,29.7028571 12.3085714,29.3714286 C16.0035074,21.9926521 21.9901781,16.0099912 29.3714286,12.32 L30.3885714,11.8285714 C30.9904762,10.6095238 31.527619,9.36761905 32,8.10285714 L30.8571429,8.53714286 Z" id="Shape" fill="#000000"></path>
            </g>
        </g>
    </g>
</svg>