<?xml version="1.0" encoding="UTF-8"?>
<svg width="32px" height="32px" viewBox="0 0 32 32" version="1.1" xmlns="http://www.w3.org/2000/svg" xmlns:xlink="http://www.w3.org/1999/xlink">
    <!-- Generator: Sketch 44.1 (41455) - http://www.bohemiancoding.com/sketch -->
    <title>logo-abp</title>
    <desc>Created with Sketch.</desc>
    <defs></defs>
    <g id="Icons" stroke="none" stroke-width="1" fill="none" fill-rule="evenodd">
        <g id="Artboard" transform="translate(-166.000000, -36.000000)">
            <g id="logo-abp" transform="translate(166.000000, 36.000000)">
                <polygon id="Fill-1" fill="#D8D9D9" points="9.301824 9.6e-05 6.39999998e-05 9.301856 6.39999998e-05 22.456736 9.301824 31.758496 22.456384 31.758496 31.758464 22.456736 31.758464 9.301856 22.456384 9.6e-05"></polygon>
                <polygon id="Fill-2" fill="#FFFFFF" points="9.3888 0.20976 0.2096 9.38864 0.2096 22.36976 9.3888 31.54864 22.36992 31.54864 31.5488 22.36976 31.5488 9.38864 22.36992 0.20976"></polygon>
                <polygon id="Fill-3" fill="#CA0000" points="9.994144 30.08704 1.671264 21.76416 1.671264 9.99424 9.994144 1.67136 21.764384 1.67136 30.086944 9.99424 30.086944 21.76416 21.764384 30.08704"></polygon>
                <path d="M8.117312,16.679808 L7.894912,15.655808 C7.756352,15.098688 7.622912,14.507008 7.494592,13.881088 C7.365952,13.255488 7.237312,12.652288 7.108992,12.072128 L7.049792,12.072128 C6.931072,12.663808 6.809792,13.269568 6.686592,13.889728 C6.562752,14.509888 6.431872,15.098688 6.293632,15.655808 L6.056192,16.679808 L8.117312,16.679808 Z M8.562112,18.642368 L5.611392,18.642368 L5.018432,21.287488 L2.794432,21.287488 L5.819072,10.160768 L8.443392,10.160768 L11.468352,21.287488 L9.155072,21.287488 L8.562112,18.642368 Z" id="Fill-4" fill="#FFFFFF"></path>
                <path d="M16.227744,19.342016 C17.423584,19.342016 18.021664,18.835776 18.021664,17.823296 C18.021664,17.334016 17.873504,16.978496 17.576864,16.756736 C17.280224,16.534656 16.830304,16.423936 16.227744,16.423936 L14.997024,16.423936 L14.997024,19.342016 L16.227744,19.342016 Z M16.020064,14.648896 C16.553824,14.648896 16.941664,14.526976 17.183904,14.282176 C17.426144,14.037696 17.547424,13.704896 17.547424,13.283776 C17.547424,12.862976 17.423584,12.561536 17.176544,12.379456 C16.929504,12.197376 16.548704,12.106176 16.034784,12.106176 L14.997024,12.106176 L14.997024,14.648896 L16.020064,14.648896 Z M12.817504,10.160896 L16.123744,10.160896 C16.628064,10.160896 17.094944,10.203456 17.525024,10.288896 C17.955104,10.374336 18.330464,10.525056 18.652064,10.741056 C18.973024,10.957376 19.225184,11.241856 19.408224,11.594176 C19.590944,11.947136 19.682464,12.390976 19.682464,12.925376 C19.682464,13.175936 19.650144,13.426176 19.586144,13.676416 C19.521504,13.926656 19.425184,14.159936 19.296864,14.375936 C19.168224,14.592256 19.000224,14.785536 18.792864,14.956096 C18.585184,15.126976 18.342944,15.252096 18.066144,15.331776 L18.066144,15.399936 C18.757984,15.547776 19.279584,15.832576 19.630624,16.253056 C19.981344,16.674176 20.156704,17.260096 20.156704,18.010816 C20.156704,18.579776 20.060384,19.069056 19.867744,19.478656 C19.675104,19.888256 19.408224,20.226816 19.067104,20.494016 C18.725984,20.761536 18.327904,20.960576 17.873504,21.091136 C17.418784,21.222336 16.929504,21.287616 16.405664,21.287616 L12.817504,21.287616 L12.817504,10.160896 Z" id="Fill-6" fill="#FFFFFF"></path>
                <path d="M25.04976,15.51936 C26.236,15.51936 26.82896,14.928 26.82896,13.74464 C26.82896,13.16448 26.67824,12.75488 26.3768,12.51584 C26.07504,12.2768 25.6328,12.15744 25.04976,12.15744 L23.83408,12.15744 L23.83408,15.51936 L25.04976,15.51936 Z M21.65424,10.16096 L25.1832,10.16096 C25.70704,10.16096 26.19888,10.22048 26.6584,10.34016 C27.11824,10.45952 27.51856,10.65856 27.85936,10.93728 C28.20048,11.21632 28.4696,11.58592 28.66768,12.04672 C28.86512,12.5072 28.964,13.07328 28.964,13.74464 C28.964,14.39296 28.86256,14.95616 28.66,15.43392 C28.45744,15.912 28.1832,16.30432 27.83728,16.61152 C27.49104,16.91872 27.09072,17.14656 26.63632,17.29408 C26.18128,17.44224 25.69712,17.51616 25.1832,17.51616 L23.83408,17.51616 L23.83408,21.28736 L21.65424,21.28736 L21.65424,10.16096 Z" id="Fill-8" fill="#FFFFFF"></path>
            </g>
        </g>
    </g>
</svg>