<?xml version="1.0" encoding="UTF-8"?>
<svg width="10px" height="16px" viewBox="0 0 10 16" version="1.1" xmlns="http://www.w3.org/2000/svg" xmlns:xlink="http://www.w3.org/1999/xlink">
    <!-- Generator: Sketch 44.1 (41455) - http://www.bohemiancoding.com/sketch -->
    <title>mobileIcon</title>
    <desc>Created with Sketch.</desc>
    <defs></defs>
    <g id="Icons" stroke="none" stroke-width="1" fill="none" fill-rule="evenodd">
        <g id="Artboard" transform="translate(-338.000000, -124.000000)" fill="#161616">
            <path d="M346.338762,124 L339.661238,124 C339.205209,124 338.814334,124.156248 338.488599,124.46875 C338.162865,124.781252 338,125.156248 338,125.59375 L338,138.40625 C338,138.843752 338.162865,139.218748 338.488599,139.53125 C338.814334,139.843752 339.205209,140 339.661238,140 L346.338762,140 C346.79479,140 347.185666,139.843752 347.511401,139.53125 C347.837136,139.218748 348,138.843752 348,138.40625 L348,125.59375 C348,125.156248 347.837136,124.781252 347.511401,124.46875 C347.185666,124.156248 346.79479,124 346.338762,124 L346.338762,124 Z M343.000001,139.203125 C342.717696,139.203125 342.4734,139.125001 342.267101,138.96875 C342.060802,138.812499 341.957656,138.625001 341.957656,138.40625 C341.957656,138.187499 342.060802,138.000001 342.267101,137.84375 C342.4734,137.6875 342.717696,137.609376 343.000001,137.609376 C343.282304,137.609376 343.5266,137.6875 343.732899,137.84375 C343.939198,138.000001 344.042346,138.187499 344.042346,138.40625 C344.042346,138.625001 343.939198,138.812499 343.732899,138.96875 C343.5266,139.125001 343.282304,139.203125 343.000001,139.203125 L343.000001,139.203125 Z M346.338762,136.796876 L339.661238,136.796876 L339.661238,125.609376 L346.338762,125.609376 L346.338762,136.796876 Z" id="mobileIcon"></path>
        </g>
    </g>
</svg>