<?xml version="1.0" encoding="UTF-8"?>
<svg width="21px" height="32px" viewBox="0 0 21 32" version="1.1" xmlns="http://www.w3.org/2000/svg" xmlns:xlink="http://www.w3.org/1999/xlink">
    <!-- Generator: Sketch 44.1 (41455) - http://www.bohemiancoding.com/sketch -->
    <title>mobile</title>
    <desc>Created with Sketch.</desc>
    <defs></defs>
    <g id="Icons" stroke="none" stroke-width="1" fill="none" fill-rule="evenodd">
        <g id="Artboard" transform="translate(-105.000000, -36.000000)" fill="#AFAFAF">
            <g id="mobile" transform="translate(105.000000, 36.000000)">
                <path d="M20.9866228,15.9880314 L20.9881522,15.9880314 C20.9881522,11.5418604 20.988662,7.0956895 20.9866228,2.64951857 C20.9866228,2.48984945 20.9820345,2.32659801 20.9514463,2.17051121 C20.699093,0.889575914 19.6361506,0.0119075046 18.3060705,0.00423110454 C16.7481079,-0.00498057556 14.1817519,0.00371934454 12.6237892,0.00371934454 C9.33656957,0.00320758453 6.04934994,0.00116054451 2.7621303,0.00218406452 C2.01424705,0.00218406452 1.32142269,0.176182466 0.76624555,0.715577512 C0.192205644,1.27339592 0.00408777127,1.98116001 0.00408777127,2.75954697 C0.00255835767,11.5659132 -0.00202988314,20.3727911 0.00102894407,29.1791573 C0.00102894407,29.4857015 0.0321270206,29.8029927 0.112676137,30.0972547 C0.433852994,31.2717439 1.47946209,32.0045843 2.80189505,31.9999784 C5.17095672,31.9917903 7.5405282,31.9702963 9.90958987,31.9677375 C12.332181,31.9651787 15.7626557,31.9749022 18.1852469,31.9876962 C19.9481509,31.9969079 21.0131326,30.6601907 20.9998777,29.1653397 C20.9616424,24.7734154 20.9866228,20.3809792 20.9866228,15.9880314 L20.9866228,15.9880314 Z M10.4973945,30.9877171 C9.61696207,30.9851583 8.90578474,30.2599944 8.90782396,29.3664614 C8.90986318,28.4923753 9.62206011,27.7718172 10.4866886,27.7682349 C11.3742583,27.7646526 12.0946121,28.4841872 12.0915533,29.3710673 C12.0884944,30.2635767 11.3722191,30.9897642 10.4973945,30.9877171 L10.4973945,30.9877171 Z M18.6088944,26.736015 L2.3904828,26.736015 L2.3904828,3.70783827 L18.6088944,3.70783827 L18.6088944,26.736015 L18.6088944,26.736015 Z" id="Shape"></path>
            </g>
        </g>
    </g>
</svg>