<?xml version="1.0" encoding="UTF-8"?>
<svg width="14px" height="16px" viewBox="0 0 14 16" version="1.1" xmlns="http://www.w3.org/2000/svg" xmlns:xlink="http://www.w3.org/1999/xlink">
    <!-- Generator: Sketch 44.1 (41455) - http://www.bohemiancoding.com/sketch -->
    <title>popular</title>
    <desc>Created with Sketch.</desc>
    <defs></defs>
    <g id="Icons" stroke="none" stroke-width="1" fill="none" fill-rule="evenodd">
        <g id="Artboard" transform="translate(-271.000000, -125.000000)" fill="#161616">
            <path d="M273.859491,140.982097 C273.220153,138.992984 273.749906,136.812086 275.229207,135.341357 C274.702076,136.678588 274.904761,138.194819 275.764392,139.345342 C276.624024,140.495865 278.017342,141.115594 279.444004,140.982097 C281.549905,140.754023 283.395611,139.46643 284.342911,137.564937 C285.29021,135.663255 285.208911,133.408651 284.127113,131.580863 C284.032514,133.288691 282.924303,134.772018 281.317248,135.341357 C282.659989,131.197105 280.627894,126.70952 276.634139,125 C276.634139,128.926519 271.281346,131.423863 271.014409,135.341357 C270.860241,137.603106 271.952155,139.767834 273.859491,140.982097 L273.859491,140.982097 Z" id="popular"></path>
        </g>
    </g>
</svg>