<?xml version="1.0" encoding="UTF-8"?>
<svg width="13px" height="16px" viewBox="0 0 13 16" version="1.1" xmlns="http://www.w3.org/2000/svg" xmlns:xlink="http://www.w3.org/1999/xlink">
    <!-- Generator: Sketch 44.1 (41455) - http://www.bohemiancoding.com/sketch -->
    <title>reporting</title>
    <desc>Created with Sketch.</desc>
    <defs></defs>
    <g id="Icons" stroke="none" stroke-width="1" fill="none" fill-rule="evenodd">
        <g id="Artboard" transform="translate(-198.000000, -125.000000)" fill="#161616">
            <g id="reporting" transform="translate(198.000000, 125.000000)">
                <path d="M12.5288219,4.86008612 C12.3233443,4.65090094 7.99337414,0.242012051 7.9008219,0.147987359 C7.6635234,-0.092802764 7.3385234,-0.0611978257 7.17010548,0.402604643 C6.89729951,1.15954292 6.23623981,2.24517254 4.6508219,2.72201205 C2.62107563,3.33238242 1.59931444,6.28764168 1.59931444,6.28764168 L7.54904578,12.3386046 C7.54904578,12.3386046 7.72638907,9.7738639 10.9816279,8.38344415 C12.0965234,7.90897501 12.6817174,6.75144415 12.9461801,6.04546884 C13.0746279,5.70354292 12.8670159,5.20418489 12.5288219,4.86008612 L12.5288219,4.86008612 Z" id="Shape"></path>
                <path d="M1.04322489,6.51203674 C0.875001007,6.34077748 0.667195037,6.27203674 0.581627873,6.35993798 L0.0381502609,6.91401205 C-0.0489691421,7.00191329 0.0183592161,7.21188859 0.186777127,7.38314785 L8.27161295,15.6132713 C8.43983683,15.7845306 8.64609056,15.8540614 8.73165772,15.7659627 L9.27591145,15.2118886 C9.36225474,15.1239874 9.2957025,14.9140121 9.12728459,14.7419627 L1.04322489,6.51203674 L1.04322489,6.51203674 Z" id="Shape"></path>
            </g>
        </g>
    </g>
</svg>