<?xml version="1.0" encoding="UTF-8"?>
<svg width="16px" height="16px" viewBox="0 0 16 16" version="1.1" xmlns="http://www.w3.org/2000/svg" xmlns:xlink="http://www.w3.org/1999/xlink">
    <!-- Generator: Sketch 44.1 (41455) - http://www.bohemiancoding.com/sketch -->
    <title>searchIcon</title>
    <desc>Created with Sketch.</desc>
    <defs></defs>
    <g id="Icons" stroke="none" stroke-width="1" fill="none" fill-rule="evenodd">
        <g id="Artboard" transform="translate(-158.000000, -125.000000)" fill="#AFAFAF">
            <path d="M169.027027,131.702703 C169.027027,130.512221 168.603931,129.49389 167.72973,128.675676 C166.911516,127.801475 165.893185,127.378378 164.702703,127.378378 C163.512221,127.378378 162.493892,127.801475 161.675676,128.675676 C160.801477,129.49389 160.378378,130.512221 160.378378,131.702703 C160.378378,132.893185 160.801477,133.911514 161.675676,134.72973 C162.493892,135.603929 163.512221,136.027027 164.702703,136.027027 C165.893185,136.027027 166.911516,135.603929 167.72973,134.72973 C168.603931,133.911514 169.027027,132.893185 169.027027,131.702703 L169.027027,131.702703 Z M174,139.702703 C174,140.102566 173.878206,140.391024 173.567568,140.567568 C173.391026,140.878206 173.102568,141 172.702703,141 C172.423077,141 172.134618,140.878206 171.837838,140.567568 L168.594595,137.324324 C167.458327,138.14103 166.179494,138.538462 164.702703,138.621622 C163.85256,138.538462 162.975966,138.360578 162.108108,137.972973 C161.30288,137.649037 160.581734,137.168273 159.945946,136.459459 C159.370189,135.956728 158.889425,135.235582 158.432432,134.297297 C158.177883,133.562495 158,132.685901 158,131.702703 C158,130.852558 158.177883,129.975964 158.432432,129.108108 C158.889425,128.30288 159.370189,127.581734 159.945946,126.945946 C160.581734,126.370189 161.30288,125.889424 162.108108,125.432432 C162.975966,125.177882 163.85256,125 164.702703,125 C165.685904,125 166.562495,125.177882 167.297297,125.432432 C168.235582,125.889424 168.956728,126.370189 169.459459,126.945946 C170.168273,127.581734 170.649037,128.30288 170.972973,129.108108 C171.36058,129.975964 171.538462,130.852558 171.621622,131.702703 C171.538462,133.179494 171.14103,134.458327 170.324324,135.594595 L173.567568,138.837838 C173.881411,139.141027 174,139.429485 174,139.702703 L174,139.702703 Z" id="searchIcon"></path>
        </g>
    </g>
</svg>