<?xml version="1.0" encoding="UTF-8"?>
<svg width="15px" height="16px" viewBox="0 0 15 16" version="1.1" xmlns="http://www.w3.org/2000/svg" xmlns:xlink="http://www.w3.org/1999/xlink">
    <!-- Generator: Sketch 44.1 (41455) - http://www.bohemiancoding.com/sketch -->
    <title>settingsIcon</title>
    <desc>Created with Sketch.</desc>
    <defs></defs>
    <g id="Icons" stroke="none" stroke-width="1" fill="none" fill-rule="evenodd">
        <g id="Artboard" transform="translate(-232.000000, -125.000000)" fill="#161616">
            <g id="settingsIcon" transform="translate(232.000000, 125.000000)">
                <path d="M7.5,10.7555556 C8.98255814,10.7555556 10.2034884,9.51111111 10.2034884,8 C10.2034884,6.48888889 8.98255814,5.24444444 7.5,5.24444444 C6.01744186,5.24444444 4.79651163,6.48888889 4.79651163,8 C4.79651163,9.51111111 6.01744186,10.7555556 7.5,10.7555556 L7.5,10.7555556 Z" id="Shape"></path>
                <path d="M0.156976744,11.0222222 L1.25581395,12.9777778 C1.46511628,13.3511111 1.91860465,13.4933333 2.30232558,13.3155556 L3.31395349,12.8355556 C3.94186047,13.4044444 4.69186047,13.8488889 5.49418605,14.1333333 L5.59883721,15.2533333 C5.63372093,15.68 5.98255814,16 6.40116279,16 L8.61627907,16 C9.03488372,16 9.38372093,15.68 9.41860465,15.2533333 L9.52325581,14.1333333 C10.3430233,13.8488889 11.0755814,13.4044444 11.7034884,12.8355556 L12.7151163,13.3155556 C13.0988372,13.4933333 13.5523256,13.3511111 13.7616279,12.9777778 L14.8604651,11.0222222 C15.0697674,10.6488889 14.9651163,10.1866667 14.6337209,9.93777778 L13.7267442,9.29777778 C13.8139535,8.88888889 13.8488372,8.44444444 13.8488372,8 C13.8488372,7.55555556 13.7965116,7.12888889 13.7267442,6.70222222 L14.6337209,6.06222222 C14.9825581,5.81333333 15.0697674,5.35111111 14.8604651,4.97777778 L13.7616279,3.02222222 C13.5523256,2.64888889 13.0988372,2.50666667 12.7151163,2.68444444 L11.7034884,3.16444444 C11.0755814,2.59555556 10.3255814,2.15111111 9.52325581,1.86666667 L9.41860465,0.764444444 C9.36627907,0.337777778 9.01744186,0 8.59883721,0 L6.40116279,0 C5.98255814,0 5.63372093,0.32 5.59883721,0.746666667 L5.49418605,1.86666667 C4.6744186,2.15111111 3.94186047,2.59555556 3.31395349,3.16444444 L2.30232558,2.68444444 C1.91860465,2.50666667 1.46511628,2.64888889 1.25581395,3.02222222 L0.156976744,4.97777778 C-0.0523255814,5.35111111 0.0523255814,5.81333333 0.38372093,6.06222222 L1.29069767,6.72 C1.20348837,7.12888889 1.16860465,7.57333333 1.16860465,8 C1.16860465,8.44444444 1.22093023,8.87111111 1.29069767,9.28 L0.38372093,9.93777778 C0.0523255814,10.1866667 -0.0523255814,10.6488889 0.156976744,11.0222222 L0.156976744,11.0222222 Z M7.5,3.64444444 C9.85465116,3.64444444 11.7732558,5.6 11.7732558,8 C11.7732558,10.4 9.85465116,12.3555556 7.5,12.3555556 C5.14534884,12.3555556 3.22674419,10.4 3.22674419,8 C3.22674419,5.6 5.14534884,3.64444444 7.5,3.64444444 L7.5,3.64444444 Z" id="Shape"></path>
            </g>
        </g>
    </g>
</svg>