<?xml version="1.0" encoding="UTF-8"?>
<svg width="20px" height="16px" viewBox="0 0 20 16" version="1.1" xmlns="http://www.w3.org/2000/svg" xmlns:xlink="http://www.w3.org/1999/xlink">
    <!-- Generator: Sketch 44.1 (41455) - http://www.bohemiancoding.com/sketch -->
    <title>twitter</title>
    <desc>Created with Sketch.</desc>
    <defs></defs>
    <g id="Icons" stroke="none" stroke-width="1" fill="none" fill-rule="evenodd">
        <g id="Artboard" transform="translate(-65.000000, -133.000000)" fill="#0D7AC7">
            <path d="M84,133 C83.64583,133.769233 82.7734425,134.089743 82,134 C81.0286425,133.423072 80.0260475,133 79,133 C77.7083275,133 76.744795,133.397433 76,134 C75.130205,134.987183 74.7265625,135.935892 75,137 C74.7265625,137.346156 74.765625,137.653844 75,138 C73.177075,137.884615 71.60808,137.474363 70,137 C68.6653575,135.987175 67.42188,134.987185 66,134 C66.015623,134.346156 65.8203125,135.025637 66,136 C65.8203125,137.205135 66.4322855,138.32051 68,139 C67.005205,139.115385 66.393232,138.948719 66,139 L66,139 C65.8203125,139.641031 66.126299,140.487175 67,141 C67.3502635,141.974363 68.138015,142.448716 69,143 C68.7369775,142.730769 68.3723975,142.769231 68,143 C67.747395,142.769231 67.48698,142.743589 67,143 C67.5130225,143.512825 68.0012975,144.185895 69,145 C69.381515,145.237182 70.1692675,145.5 71,146 C69.570305,146.653852 67.8776125,147.230769 66,147 C65.664061,147.230769 65.3385433,147.217949 65,147 C66.927093,148.397442 69.023425,149 71,149 C73.1119875,149 74.7786375,148.65385 76,148 C77.7994875,147.269227 79.0299425,146.365391 80,145 C80.930995,144.134609 81.666665,142.903852 82,142 C82.708335,140.211532 82.96875,138.858981 83,137 C82.96875,137.320512 82.96875,137.153846 83,137 C83.776045,136.410252 84.4531225,135.705132 85,135 C84.2447875,135.21795 83.463545,135.435897 83,136 C83.54167,134.999998 84.1406225,134.256416 84,133 L84,133 Z" id="twitter"></path>
        </g>
    </g>
</svg>